<?xml version="1.0" encoding="UTF-8" standalone="no"?>
<!-- Created with Inkscape (http://www.inkscape.org/) -->

<svg
   xmlns:dc="http://purl.org/dc/elements/1.1/"
   xmlns:cc="http://creativecommons.org/ns#"
   xmlns:rdf="http://www.w3.org/1999/02/22-rdf-syntax-ns#"
   xmlns:svg="http://www.w3.org/2000/svg"
   xmlns="http://www.w3.org/2000/svg"
   xmlns:sodipodi="http://sodipodi.sourceforge.net/DTD/sodipodi-0.dtd"
   xmlns:inkscape="http://www.inkscape.org/namespaces/inkscape"
   width="723.60303"
   height="287.9407"
   id="svg2"
   version="1.1"
   inkscape:version="0.48.4 r9939"
   sodipodi:docname="blind-men-elephant.svg">
  <defs
     id="defs4" />
  <sodipodi:namedview
     id="base"
     pagecolor="#ffffff"
     bordercolor="#666666"
     borderopacity="1.0"
     inkscape:pageopacity="0.0"
     inkscape:pageshadow="2"
     inkscape:zoom="1.4"
     inkscape:cx="421.27891"
     inkscape:cy="87.362903"
     inkscape:document-units="px"
     inkscape:current-layer="layer1"
     showgrid="false"
     fit-margin-top="0"
     fit-margin-left="0"
     fit-margin-right="0"
     fit-margin-bottom="0"
     inkscape:window-width="1918"
     inkscape:window-height="1059"
     inkscape:window-x="0"
     inkscape:window-y="0"
     inkscape:window-maximized="1" />
  <metadata
     id="metadata7">
    <rdf:RDF>
      <cc:Work
         rdf:about="">
        <dc:format>image/svg+xml</dc:format>
        <dc:type
           rdf:resource="http://purl.org/dc/dcmitype/StillImage" />
        <dc:title />
      </cc:Work>
    </rdf:RDF>
  </metadata>
  <g
     inkscape:label="Calque 1"
     inkscape:groupmode="layer"
     id="layer1"
     transform="translate(-7.16874,-384.57209)">
    <path
       style="fill:#555753"
       d="m 286.36817,669.92092 c -3.3,-1.41235 -6.35986,-3.19387 -6.79969,-3.95893 -0.43983,-0.76506 -1.48983,-1.39102 -2.33333,-1.39102 -0.84351,0 -1.3439,-0.5625 -1.112,-1.25 0.23191,-0.6875 1.35375,-1.25 2.49298,-1.25 1.13923,0 2.41555,-0.34106 2.83626,-0.75791 1.13328,-1.12287 19.79548,0.37598 20.64295,1.65794 1.8869,2.85426 -3.20732,9.57988 -7.22717,9.54163 -1.375,-0.0131 -5.2,-1.17935 -8.5,-2.59171 z m -1,-5.34995 c 0.33992,-0.55 0.16803,-1 -0.38197,-1 -0.55,0 -1.27811,0.45 -1.61803,1 -0.33992,0.55 -0.16803,1 0.38197,1 0.55,0 1.27811,-0.45 1.61803,-1 z m 29,1.9725 c -4.4,-2.11978 -7.1,-3.8673 -6,-3.88337 1.1,-0.0161 5.6,1.719 10,3.85574 4.4,2.13674 7.1,3.88425 6,3.88337 -1.1,-8.8e-4 -5.6,-1.73597 -10,-3.85574 z m -64.15071,0.55965 c 0.60608,-1.57943 0.30326,-1.69783 -2.58133,-1.00933 -4.92945,1.17656 -18.65695,1.46581 -19.3114,0.4069 -0.55628,-0.90009 9.13502,-1.52361 20.26863,-1.30404 2.87385,0.0567 5.01866,-0.23113 4.76623,-0.63956 -0.48347,-0.78228 5.29487,-2.4331 7.00858,-2.00229 0.55,0.13826 1.9,0.36603 3,0.50616 3.83427,0.48842 4.15762,0.34608 -11.91867,5.24662 -1.53018,0.46645 -1.77964,0.22257 -1.23204,-1.20446 z m 88.65071,-1.53215 c 0,-0.55 0.47656,-1 1.05902,-1 0.58246,0 0.7809,0.45 0.44098,1 -0.33992,0.55 -0.81648,1 -1.05902,1 -0.24254,0 -0.44098,-0.45 -0.44098,-1 z m -16,-1.5 c -1.01247,-1.21995 -0.96484,-1.5 0.25511,-1.5 0.825,0 2.0602,0.675 2.74489,1.5 1.01247,1.21995 0.96484,1.5 -0.25511,1.5 -0.825,0 -2.0602,-0.675 -2.74489,-1.5 z m -99,-0.97432 c 0,-2.20365 4.75299,-4.1863 11.5,-4.79707 3.3,-0.29873 6.7875,-0.85802 7.75,-1.24287 0.9625,-0.38484 1.75,-0.2949 1.75,0.19987 0,1.1765 -8.06668,3.31439 -12.50588,3.31439 -2.39417,0 -3.86619,0.62292 -4.72619,2 -1.45875,2.33582 -3.76793,2.65798 -3.76793,0.52568 z m 128.54271,-1.45658 c -0.68308,-1.10523 0.8944,-2.29865 1.81781,-1.37525 0.95079,0.95079 0.77359,2.30615 -0.3015,2.30615 -0.51754,0 -1.19988,-0.41891 -1.51631,-0.9309 z m -267.542751,-1.0691 c 0,-0.55 0.9266,-1 2.0591,-1 1.1324,0 1.7809,0.45 1.4409,1 -0.3399,0.55 -1.2664,1 -2.059,1 -0.7925,0 -1.441,-0.45 -1.441,-1 z m 436.441161,-1.4682 c -1.55186,-1.17377 -1.62852,-1.47457 -0.38226,-1.5 0.85738,-0.0175 2.43238,0.62889 3.5,1.4364 1.55186,1.17377 1.62852,1.47457 0.38226,1.5 -0.85738,0.0175 -2.43238,-0.62889 -3.5,-1.4364 z m -202.94112,-1.10703 c 1.1,-0.8314 3.125,-1.75467 4.5,-2.05172 1.375,-0.29705 2.99967,-0.68928 3.61037,-0.87161 0.6107,-0.18233 1.3695,-2.28224 1.68622,-4.66647 0.31671,-2.38424 0.86445,-5.28027 1.2172,-6.43563 0.54944,-1.79957 -0.30086,-2.58788 -5.93251,-5.5 -3.61564,-1.86964 -6.57555,-3.73684 -6.57758,-4.14934 -0.006,-1.25267 1.24176,-0.83073 7.4963,2.53459 l 6,3.22835 -0.32894,7.24353 c -0.27839,6.13026 -0.0813,7.24353 1.28222,7.24353 0.88614,0 2.03959,-1.0125 2.56321,-2.25 0.8694,-2.05468 0.9317,-1.98958 0.71777,0.75 -0.22562,2.88938 -0.42406,3.00631 -5.38133,3.17109 -2.83089,0.0941 -6.52105,0.88161 -8.20034,1.75 -3.84468,1.98816 -5.28085,1.99015 -2.65259,0.004 z m 381.51958,0.84096 c -5.4763,-0.49287 -7.0196,-1.66453 -7.0196,-5.32916 0,-3.26891 0.2976,-3.52658 5.118,-4.43088 2.8908,-0.54232 3.7339,-0.33407 4.2665,1.05383 0.3812,0.99339 0.015,2.44663 -0.8604,3.41384 -2.3042,2.54611 -1.8978,3.02664 2.5592,3.02664 2.822,0 3.9548,0.38613 3.6672,1.25 -0.4779,1.43536 -1.531,1.57372 -7.7309,1.01573 z m -300.01958,-2.57717 c 0,-2.02189 0.49593,-2.68856 2,-2.68856 1.1,0 2,0.24382 2,0.54181 0,0.298 -0.9,1.50785 -2,2.68856 l -2,2.14675 0,-2.68856 z m 7.25,1.63423 c 3.78637,-0.62735 3.47863,-2.88565 -0.94542,-6.93792 -3.11561,-2.85379 -4.44145,-3.38487 -8.45031,-3.38487 -3.0063,0 -5.04897,-0.51063 -5.55458,-1.38853 -0.43983,-0.76369 -1.6624,-1.55119 -2.71682,-1.75 -1.05443,-0.19881 -2.09262,-0.88856 -2.30711,-1.53278 -0.24271,-0.72901 0.34422,-0.97932 1.55428,-0.66289 1.06933,0.27964 2.28175,-0.0377 2.69426,-0.70512 0.49528,-0.80138 1.1965,-0.15168 2.06458,1.91288 1.16494,2.77058 1.77536,3.12644 5.36285,3.12644 3.73119,0 4.05423,-0.2154 4.12435,-2.75 0.0749,-2.70612 0.0954,-2.6967 1.2854,0.59015 0.66512,1.83708 2.07105,3.8224 3.12427,4.41181 2.97681,1.66591 20.59339,2.20705 24.95784,0.76665 2.73662,-0.90316 4.03788,-0.93713 4.84846,-0.12655 0.81059,0.81059 0.6669,1.10794 -0.53536,1.10794 -0.90381,0 -2.23131,0.80386 -2.95,1.78635 -1.16136,1.58766 -2.98585,2.32445 -12.8067,5.17179 -1.375,0.39866 -5.65,0.7463 -9.49999,0.77256 -3.85,0.0263 -5.7625,-0.15731 -4.25,-0.40791 z m 14.56476,-3.57279 c 0.25774,-1.35905 -0.35471,-1.75 -2.74145,-1.75 -2.43958,0 -3.07332,0.42611 -3.07332,2.06642 0,1.663 0.53521,2.00465 2.74145,1.75 1.65345,-0.19084 2.87316,-1.01094 3.07332,-2.06642 z m 261.87012,3.60154 c -0.3567,-0.35665 -0.3829,-1.70665 -0.058,-3 0.4652,-1.85343 0.186,-2.35154 -1.3182,-2.35154 -1.0496,0 -2.4154,0.50705 -3.0352,1.12678 -1.7528,1.75286 -6.2056,0.11578 -7.5176,-2.76391 -0.9869,-2.16597 -0.9009,-2.78347 0.534,-3.83266 0.9407,-0.68788 1.7104,-1.98859 1.7104,-2.89045 0,-2.04713 1.3643,-2.11068 3,-0.13976 1.3182,1.58827 7.6271,2.02357 9.7543,0.67302 0.8333,-0.52906 1.3996,-4.46786 1.6871,-11.73469 0.8089,-20.44323 0.9828,-20.95075 1.5209,-4.43833 l 0.5377,16.5 3.3415,0.32018 c 3.1942,0.30607 3.267,0.40249 1.6513,2.18774 -1.3278,1.46721 -2.2188,1.66654 -4.1565,0.92982 -1.3566,-0.51576 -2.8731,-0.93774 -3.37,-0.93774 -1.5385,0 0.1075,2.86756 1.8372,3.20068 1.3521,0.26039 1.2126,0.70643 -0.8108,2.59152 l -2.4441,2.277 2.2257,0.58203 c 1.2242,0.32012 2.2257,0.97955 2.2257,1.4654 0,1.01197 -6.3346,1.2154 -7.3151,0.23491 z m -5.2759,-6.20422 c 0.2898,-0.46897 -0.085,-1.68948 -0.8328,-2.71225 -1.1587,-1.58467 -1.5993,-1.66075 -2.9803,-0.51464 -1.2374,1.02696 -1.3523,1.66819 -0.4858,2.71225 1.2759,1.53732 3.5021,1.80384 4.2989,0.51464 z m -20.8387,4.96637 c -0.3013,-0.48747 0.3471,-1.12034 1.441,-1.40638 1.2888,-0.33703 1.9887,-0.0251 1.9887,0.88631 0,1.54519 -2.5566,1.93286 -3.4297,0.52007 z m -320.07028,-2.11369 c 0.33992,-0.55 0.81648,-1 1.05902,-1 0.24254,0 0.44098,0.45 0.44098,1 0,0.55 -0.47656,1 -1.05902,1 -0.58246,0 -0.7809,-0.45 -0.44098,-1 z m 4.70284,-0.25559 c -1.68225,-2.02699 -2.47322,-6.45928 -1.28387,-7.19433 0.65429,-0.40438 1.08707,0.24338 1.09634,1.6409 0.008,1.26996 0.43532,2.97319 0.94865,3.78495 0.76085,1.20316 1.1058,1.01835 1.86652,-1 0.94823,-2.51584 -0.0778,-5.97593 -1.77204,-5.97593 -0.47916,0 -0.63585,-0.9 -0.34819,-2 1.09597,-4.19098 3.57199,-1.36079 4.58658,5.24264 0.78304,5.09641 -2.49346,8.63521 -5.09399,5.50177 z m 148.79715,-0.51937 c 0,-1.91977 2.98368,-3.62679 5.75,-3.28969 0.6875,0.0838 1.25,-0.255 1.25,-0.75284 0,-0.49784 1.125,-0.69011 2.5,-0.42726 3.30444,0.63168 3.21052,2.70351 -0.13134,2.8971 -1.44645,0.0838 -2.91314,0.61061 -3.25931,1.17071 -0.34616,0.56011 -1.86238,1.32783 -3.36937,1.70606 -2.29972,0.5772 -2.73998,0.36766 -2.73998,-1.30408 z m 217.99999,-0.72504 c 0,-1.42752 -0.577,-2.5 -1.345,-2.5 -0.7398,0 -2.1844,-0.92747 -3.2102,-2.06105 -1.5888,-1.75555 -1.65,-2.19409 -0.4129,-2.95864 0.7988,-0.49368 3.2941,-0.86063 5.5452,-0.81544 2.251,0.0452 5.0375,-0.42343 6.1921,-1.04136 2.5099,-1.34324 6.069,-1.52901 4.6808,-0.24431 -0.5225,0.48356 -2.6409,1.41959 -4.7077,2.08008 -4.3504,1.39031 -5.7693,3.44878 -5.0328,7.30136 0.3179,1.6629 0.085,2.73936 -0.5929,2.73936 -0.6141,0 -1.1166,-1.125 -1.1166,-2.5 z M 250.3405,652.5262 c -0.72937,-1.18015 1.76012,-2.2497 4.16045,-1.78743 1.38287,0.26631 1.19298,0.59056 -0.90587,1.54686 -1.66505,0.75864 -2.87894,0.84837 -3.25458,0.24057 z m 99.52767,0.0602 c 0,-0.55847 1.33713,-1.0154 2.97141,-1.0154 2.4932,0 3.12243,-0.52305 3.90981,-3.25 0.69525,-2.40788 0.96177,-2.68229 1.02859,-1.05902 0.11326,2.75146 1.90125,3.96496 2.71552,1.84301 0.5516,-1.43745 0.73115,-1.42873 1.84123,0.0894 0.67652,0.92519 1.7483,1.36185 2.38174,0.97037 1.41474,-0.87436 1.52357,-5.2459 0.1517,-6.09376 -1.28744,-0.79568 -1.29659,-2.5 -0.0134,-2.5 0.54262,0 1.74502,1.6875 2.67201,3.75 1.4589,3.24598 1.73796,3.45452 2.07621,1.55158 0.21493,-1.20912 -0.0875,-3.09204 -0.67201,-4.18425 -1.34588,-2.51478 -1.39307,-10.11733 -0.0628,-10.11733 0.55,0 1,0.81984 1,1.82186 0,1.00202 0.73011,3.96461 1.62246,6.58352 2.20803,6.48023 1.01453,8.92659 -5.30405,10.87187 -5.65207,1.74009 -16.31841,2.22257 -16.31841,0.73815 z m 161.44525,0.0965 c -0.82769,-0.82767 0.7617,-2.1119 2.61376,-2.1119 1.37706,0 1.94098,-0.69076 1.94098,-2.37756 0,-2.83535 2.58221,-5.24515 5.15362,-4.80952 2.45912,0.4166 2.42145,-2.43478 -0.0496,-3.75727 -1.55048,-0.82979 -2.62231,-0.33502 -5.88128,2.71482 -2.19189,2.05124 -4.24351,4.40453 -4.55915,5.22953 -0.31564,0.825 -0.48157,-0.75 -0.36873,-3.5 0.19089,-4.65192 0.39661,-5.02203 2.95517,-5.31642 3.11779,-0.35874 3.29397,-1.31496 2.86166,-15.53184 -0.14825,-4.87526 0.12883,-7.62114 0.73145,-7.2487 0.53356,0.32975 1.01548,4.92236 1.07094,10.20579 0.0555,5.28343 0.32484,9.96869 0.59863,10.41169 0.75343,1.21907 8.36026,2.37661 13.98732,2.12847 4.81399,-0.21229 14.17007,-2.64283 15.77656,-4.09847 0.91874,-0.83247 -0.69958,-12.23709 -3.37218,-23.76433 -1.04744,-4.5176 -1.90441,-11.14864 -1.90441,-14.73565 0,-6.74349 -1.81651,-15.55054 -3.2074,-15.55054 -0.43593,0 -0.7926,-0.73789 -0.7926,-1.63976 0,-0.90186 -0.7875,-2.25085 -1.75,-2.99774 -1.63568,-1.26928 -1.5751,-1.51424 0.92736,-3.7498 1.47254,-1.31549 4.84754,-3.21765 7.5,-4.22703 2.65245,-1.00938 8.87264,-4.0382 13.82264,-6.73071 20.98547,-11.4149 31.58613,-16.71976 32.40259,-16.21516 0.47894,0.296 1.42688,-0.13187 2.10655,-0.95081 1.84348,-2.22126 3.99086,-1.80374 3.99086,0.77596 0,2.23207 -2.73439,4.14001 -14.07793,9.82296 -1.96786,0.98587 -4.15928,2.49298 -4.86982,3.34914 -0.71055,0.85615 -3.42557,2.19027 -6.03339,2.96471 -5.44607,1.61731 -9.16649,3.54712 -10.32178,5.35401 -0.48642,0.76077 -1.76751,1.01367 -3.25,0.64159 -1.38384,-0.34732 -2.44708,-0.17622 -2.44708,0.3938 0,0.55439 -2.26388,1.82206 -5.03084,2.81704 -5.67757,2.04163 -8.70348,6.1512 -6.94647,9.4342 0.53752,1.00437 0.97731,4.69469 0.97731,8.20073 0,4.05687 0.53382,7.08038 1.4682,8.31574 0.82702,1.09342 1.48208,1.39525 1.5,0.69113 0.0419,-1.64821 7.2242,-1.6576 8.87019,-0.0116 0.68112,0.68112 1.78362,1.28758 2.45,1.34769 0.66639,0.0601 1.99911,0.17783 2.96161,0.26161 0.9625,0.0838 1.75,0.77221 1.75,1.52987 0,1.93779 2.15866,3.50417 5.84531,4.2415 2.5042,0.50084 3.15469,0.29587 3.15469,-0.99406 0,-0.89375 0.70489,-1.625 1.56642,-1.625 2.50008,0 1.46672,5.46321 -1.06642,5.638 -1.1,0.0759 -3.22157,0.6212 -4.7146,1.21178 -1.49303,0.59059 -2.93654,0.71468 -3.20781,0.27576 -0.60392,-0.97715 -10.42679,-0.75012 -12.7797,0.29537 -2.45716,1.09181 -4.05705,-0.28486 -3.53073,-3.03813 0.30797,-1.61107 -0.007,-2.38278 -0.97322,-2.38278 -0.89109,0 -1.23405,0.65853 -0.91141,1.75 1.63271,5.52324 3.61747,19.41825 3.61747,25.32528 0,8.05098 -0.35748,8.3857 -9.829,9.20316 -6.20959,0.53593 -8.89647,1.5577 -6.421,2.4418 1.55114,0.55398 1.60478,3.96359 0.12897,8.19711 l -1.12104,3.2158 -11.46089,-0.31517 c -6.3035,-0.17335 -11.6368,-0.49107 -11.85178,-0.70606 z m 20.55474,-2.13665 c 0,-0.56361 -1.2375,-1.54664 -2.75,-2.18451 l -2.75,-1.15976 4,-0.63355 c 3.0403,-0.48154 3.57959,-0.82304 2.24776,-1.42334 -3.01215,-1.35767 -6.74776,0.18041 -6.74776,2.7783 0,1.27285 0.3,2.61428 0.66667,2.98094 1.05945,1.05946 5.33333,0.77251 5.33333,-0.35808 z m 29.5,-84.97525 c 0.33992,-0.55 0.14148,-1 -0.44098,-1 -0.58246,0 -1.05902,0.45 -1.05902,1 0,0.55 0.19844,1 0.44098,1 0.24254,0 0.7191,-0.45 1.05902,-1 z m 161.84509,84.45687 c -0.3257,-0.84872 -0.3224,-1.81284 0.01,-2.1425 0.8647,-0.86466 3.7309,1.74199 3.0777,2.79894 -0.8535,1.38097 -2.432,1.04509 -3.0849,-0.65644 z m -610.34512,-0.37354 c 0,-1.22373 2.0886,-1.86453 4.25,-1.30394 2.8372,0.73583 2.0014,2.22061 -1.25,2.22061 -1.65,0 -3,-0.4125 -3,-0.91667 z m 144.81254,0.23356 c 0.72187,-0.28887 1.58438,-0.25335 1.91667,0.0789 0.33229,0.33229 -0.25834,0.56864 -1.3125,0.52522 -1.16495,-0.048 -1.4019,-0.28494 -0.60417,-0.60416 z m 182.74273,-1.50351 c -0.73419,-2.23919 -1.16369,-21.81338 -0.47864,-21.81338 1.0221,0 2.9234,10.80127 2.9234,16.60776 0,4.94994 -1.48902,8.12051 -2.44476,5.20562 z M 211.86816,647.571 c 0,-0.55 0.45,-1 1.00001,-1 1.70261,0 1.17384,-6.71931 -0.5818,-7.39301 -2.38347,-0.91462 -2.41821,-0.87235 -2.41821,2.9427 0,2.9742 -0.26186,3.40315 -1.61517,2.64579 -0.97084,-0.5433 -3.41184,-0.5207 -6.1189,0.0567 -5.86765,1.25144 -9.54892,-0.21248 -8.7779,-3.49069 0.66823,-2.84121 -0.06,-3.78942 -4.73803,-6.16892 -2.0625,-1.04911 -3.75,-2.64661 -3.75,-3.55 0,-0.90339 -0.3375,-2.07168 -0.75,-2.5962 -0.4125,-0.52452 0.75918,0.5057 2.60374,2.28939 4.61714,4.46476 9.6889,5.63443 21.14626,4.87681 5.22501,-0.3455 10.62501,-0.8589 12.00001,-1.14088 1.8748,-0.38449 2.03867,-0.30843 0.65526,0.30414 -1.65948,0.73482 -1.57115,0.94151 0.87967,2.05817 2.21487,1.00916 3.02745,0.98673 4.34474,-0.11994 2.46457,-2.07053 5.12033,-1.00704 5.12033,2.05043 0,2.44109 -0.091,2.49333 -1.3483,0.7739 -1.80553,-2.46921 -4.04873,-1.14872 -2.61128,1.53717 0.7791,1.45577 0.71603,2.04939 -0.2473,2.32757 -0.71121,0.20539 -3.92066,1.32371 -7.1321,2.48517 -6.58098,2.38005 -7.66103,2.53678 -7.66103,1.1117 z m -12,-7.06343 c 0,-2.24232 -1.31,-3.13858 -3.40976,-2.33283 -1.8679,0.71678 -2.09037,3.49613 -0.41403,5.17247 1.49831,1.49831 3.82379,-0.22865 3.82379,-2.83964 z m 132.50001,7.06343 c -0.33992,-0.55 -0.14148,-1 0.44098,-1 0.58246,0 1.05902,0.45 1.05902,1 0,0.55 -0.19844,1 -0.44098,1 -0.24254,0 -0.7191,-0.45 -1.05902,-1 z m 239.49999,-1.17387 c 0,-1.38281 0.47297,-1.85861 1.46797,-1.47679 0.80739,0.30982 1.75291,0.10229 2.10116,-0.46119 0.34824,-0.56347 1.26265,-0.78294 2.03202,-0.48771 0.76937,0.29524 1.39885,0.0484 1.39885,-0.54846 0,-0.66702 0.86708,-0.81439 2.25,-0.38239 1.2375,0.38657 3.0375,0.69202 4,0.67878 0.9625,-0.0132 1.75,0.28811 1.75,0.66967 0,1.08304 -5.84004,3.39886 -6.90752,2.73912 -0.52486,-0.32438 -1.19433,-0.20138 -1.48772,0.27333 -0.29339,0.47472 -1.89948,0.90196 -3.5691,0.94943 -2.41709,0.0687 -3.03566,-0.32939 -3.03566,-1.95379 z M 20.868129,646.271 c 0,-3.49108 5.8012,-4.9254 9.2714,-2.2923 1.5993,1.21344 1.3375,1.45336 -2.6928,2.46819 -5.7051,1.43656 -6.5786,1.41321 -6.5786,-0.17589 z m 45.3872,-0.40618 c -2.2476,-1.64344 -1.1542,-2.7747 1.374,-1.42164 1.1769,0.62988 2.2923,0.67436 2.8529,0.11377 1.2259,-1.22587 5.5708,-0.0384 5.0911,1.39137 -0.5166,1.54002 -7.1794,1.48031 -9.318,-0.0835 z m 122.226201,0.98622 c -0.39598,-0.39598 -1.70043,-0.73348 -2.89879,-0.75 -2.38027,-0.0328 -3.58097,-3.06365 -1.88541,-4.75921 1.2633,-1.2633 7.17083,2.68883 7.17083,4.79726 0,1.53186 -1.20674,1.89183 -2.38663,0.71195 z m 78.11997,-0.40413 c 0.67834,-0.68342 1.48524,-0.99067 1.79313,-0.68278 0.30789,0.30789 -0.24711,0.86705 -1.23333,1.24258 -1.4252,0.54268 -1.54006,0.42782 -0.5598,-0.5598 z m -7.34895,-2.31663 c -0.52526,-1.36879 -0.83807,-1.45032 -1.50823,-0.39313 -0.53199,0.83924 -0.8512,-0.38118 -0.86084,-3.29115 -0.008,-2.54375 -0.26753,-5.91875 -0.57579,-7.5 -0.43063,-2.2089 0.1765,-3.87036 2.62048,-7.17119 1.74952,-2.3629 3.43228,-4.04487 3.73944,-3.7377 0.30717,0.30717 -0.42204,1.88473 -1.62047,3.5057 -1.67896,2.2709 -2.17897,4.34841 -2.17897,9.05344 0,3.35843 0.48646,7.01519 1.08102,8.12614 0.59456,1.11095 0.83015,2.27077 0.52354,2.57738 -0.30662,0.30662 -0.8557,-0.21965 -1.22018,-1.16949 z m 13.11562,0.44072 c 1.1,-0.47269 2.675,-0.85943 3.5,-0.85943 0.94548,0 0.76064,0.31771 -0.5,0.85943 -1.1,0.47269 -2.675,0.85943 -3.5,0.85943 -0.94548,0 -0.76064,-0.31771 0.5,-0.85943 z M 15.868129,643.01198 c 0,-0.85746 0.45,-1.2809 1,-0.94098 0.55,0.33992 1,1.04148 1,1.55902 0,0.51754 -0.45,0.94098 -1,0.94098 -0.55,0 -1,-0.70156 -1,-1.55902 z m 30,0.19051 c -7.8863,-1.37281 -8.75,-1.88164 -8.75,-5.15492 0,-1.40795 -0.1969,-2.75682 -0.4376,-2.9975 -0.3449,-0.34498 -6.2823,-1.05095 -12.0367,-1.43121 -1.5119,-0.0999 -3.9683,-6.25524 -2.9161,-7.30741 0.7063,-0.70632 1.2403,-0.19083 1.7001,1.64128 0.8495,3.38471 3.1665,4.61827 8.6746,4.61827 5.2089,0 6.7657,-1.298 6.7657,-5.64098 0,-1.78254 0.45,-3.5191 1,-3.85902 0.6158,-0.38055 1,1.30328 1,4.38197 0,2.75 -0.45,5.27811 -1,5.61803 -2.3874,1.4755 -0.4987,2.31185 6.75,2.98898 9.4556,0.88327 13.25,2.61202 13.25,6.0367 0,2.21362 -0.3951,2.46183 -3.75,2.35581 -2.0625,-0.0652 -6.675,-0.62768 -10.25,-1.25 z m 8.5,-2.63149 c 0.34,-0.55 0.1415,-1 -0.4409,-1 -0.5825,0 -1.0591,0.45 -1.0591,1 0,0.55 0.1985,1 0.441,1 0.2426,0 0.7191,-0.45 1.059,-1 z m 389.604331,-6.75 c -1.78959,-14.79106 -1.78908,-14.75 -0.18334,-14.75 2.54543,0 5.31886,19.10551 3.47205,23.91821 -1.27702,3.32785 -2.03116,1.22545 -3.28871,-9.16821 z m 254.54509,8.51725 c -0.3211,-1.22802 -0.1486,-2.66802 0.3834,-3.2 0.623,-0.623 0.9672,0.17166 0.9672,2.23275 0,3.73952 -0.5269,4.1169 -1.3506,0.96725 z m -404.39938,-0.0444 c -2.17647,-0.99492 -3.09103,-2.7229 -1.44113,-2.7229 1.23062,0 4.75734,2.77282 4.18956,3.29395 -0.27414,0.25162 -1.51093,-0.005 -2.74843,-0.57105 z m 370.66668,-0.13826 c -0.9948,-0.99168 1.0909,-40.98814 2.1907,-42.00976 0.868,-0.80637 0.9911,-0.20056 0.4926,2.42512 -0.3654,1.925 -0.8987,11.58627 -1.185,21.46948 -0.507,17.50091 -0.6295,18.98128 -1.4983,18.11516 z M 7.9045292,640.11475 c -1.5559,-1.87476 -0.7348,-3.11851 3.3329998,-5.04885 2.2347,-1.06043 4.0263,-1.28412 5.6057,-0.69988 2.255,0.83419 2.2101,0.92658 -1.5769,3.23921 -2.144,1.30929 -4.0482,2.7372 -4.2315,3.17313 -0.512,1.21745 -1.7948998,0.94549 -3.1302998,-0.66361 z m 289.5063508,0.5253 c -1.00194,-1.62117 1.17528,-2.11382 2.46643,-0.55809 1.00476,1.21067 0.94351,1.48899 -0.32768,1.48899 -0.85988,0 -1.82232,-0.41891 -2.13875,-0.9309 z m 203.19033,0.1431 c -1.52183,-0.19158 -2.50777,-0.76769 -2.19099,-1.28026 0.7359,-1.19071 6.16211,-1.21962 6.89318,-0.0367 0.732,1.1844 -1.27964,1.74782 -4.70219,1.31698 z m 224.89364,-0.68182 c 0.3409,-0.8882 1.048,-1.47214 1.5715,-1.29764 1.4984,0.49947 1.0686,2.2337 -0.6419,2.58991 -1.0688,0.22259 -1.3571,-0.17816 -0.9296,-1.29227 z M 61.556329,637.96655 c -3.3317,-1.8061 -3.1023,-3.22336 0.8808,-5.4417 l 2.931,-1.63242 -0.2203,-27.91074 c -0.1212,-15.35091 -0.7626,-32.74431 -1.4254,-38.652 -0.6628,-5.90769 -0.9402,-11.00615 -0.6164,-11.3299 1.2629,-1.26291 5.7675,2.97262 9.0858,8.54294 3.2124,5.39281 3.3348,5.88427 1.5793,6.34335 -2.2651,0.59233 -2.5599,2.68487 -0.3782,2.68487 0.8386,0 1.9628,1.15208 2.4981,2.56017 0.5354,1.4081 1.411,2.2897 1.9459,1.95911 1.163,-0.71876 2.5004,3.9125 1.5664,5.42388 -0.3593,0.58126 -1.2632,1.05684 -2.0089,1.05684 -2.0088,0 -2.8731,12.68458 -1.6011,23.5 1.7065,14.51054 1.4538,19.78225 -1.0225,21.32874 -2.8598,1.78597 -3.6829,0.59956 -1.8339,-2.6433 1.3315,-2.33525 1.3686,-3.97161 0.2848,-12.54848 -0.6855,-5.42468 -1.4829,-10.09959 -1.772,-10.38869 -2.0107,-2.0107 -4.6978,20.16815 -3.1774,26.2258 0.4431,1.76541 1.8181,3.13866 4.0954,4.09018 4.0806,1.70499 5.7401,4.25608 4.366,6.71157 -1.2512,2.23574 -11.1304,2.31371 -15.1774,0.11978 z m 10.2829,-2.35654 c 0.809,-0.51167 1.1358,-1.2655 0.7262,-1.67516 -0.4097,-0.40967 -1.5056,0.0159 -2.4354,0.94562 -1.8073,1.80739 -0.7254,2.26921 1.7092,0.72954 z m 0.029,-37.59808 c 0,-0.85746 -0.45,-1.2809 -1,-0.94098 -0.55,0.33992 -1,1.04148 -1,1.55902 0,0.51754 0.45,0.94098 1,0.94098 0.55,0 1,-0.70156 1,-1.55902 z m -0.4084,-17.06278 c -0.7228,-1.88366 -2.5969,-0.84285 -2.5763,1.43082 0.013,1.45727 0.1493,1.48367 0.9847,0.19098 0.7744,-1.19834 0.9958,-0.99723 1.1007,1 0.095,1.80558 0.2614,1.99768 0.5998,0.69159 0.2578,-0.99463 0.2087,-2.48565 -0.1089,-3.31339 z m -0.8986,-9.10917 c -0.2536,-0.97297 -0.4777,-0.41903 -0.4981,1.23097 -0.02,1.65 0.1871,2.44606 0.461,1.76903 0.2739,-0.67703 0.2906,-2.02703 0.037,-3 z m -0.4033,-5.26903 c -0.2876,-1.1 -0.8784,-2 -1.3127,-2 -0.4344,0 -0.5544,0.9 -0.2668,2 0.2877,1.1 0.8784,2 1.3128,2 0.4343,0 0.5544,-0.9 0.2667,-2 z m 14.4603,72.32111 c -2.483,-0.66368 -2.1699,-2.97534 0.5,-3.69082 3.9698,-1.06387 4.904,-0.73481 4.5695,1.60949 -0.3245,2.27472 -1.9103,2.92577 -5.0695,2.08133 z m 553.249961,-0.75372 c 0,-1.63064 3.4463,-3.02765 5.0396,-2.04291 1.5119,0.93438 -0.8001,3.47552 -3.162,3.47552 -1.0327,0 -1.8776,-0.64468 -1.8776,-1.43261 z m -296.03585,-5.06739 c 0.003,-3.3 -0.21349,-9.15 -0.48021,-13 l -0.48493,-7 1.45637,5 c 1.68136,5.77243 1.9823,17.30105 0.50902,19.5 -0.72812,1.08677 -1.00368,-0.15293 -1.00025,-4.5 z m 168.7633,2.23211 c -0.26759,-0.69735 -0.15541,-5.08485 0.24931,-9.75 l 0.73584,-8.48211 0.1437,9.75 c 0.13872,9.41177 -0.0958,11.17413 -1.12885,8.48211 z m 187.54495,-2.73211 c 0,-2.475 0.195,-3.4875 0.4333,-2.25 0.2384,1.2375 0.2384,3.2625 0,4.5 -0.2383,1.2375 -0.4333,0.225 -0.4333,-2.25 z m -201.42992,-10.75 c -0.0867,-7.0125 -0.0754,-13.425 0.0249,-14.25 1.05908,-8.70674 1.29215,-13 0.70576,-13 -0.93072,0 -4.9372,2.12202 -5.57315,2.95181 -0.80308,1.04786 -14.01854,6.87846 -26.5,11.69169 -2.2,0.84838 -4.9,1.91458 -6,2.36933 -1.1,0.45474 -5.15,1.92093 -9,3.25819 -17.39543,6.04213 -19.5,6.56561 -19.5,4.8503 0,-0.48327 1.4625,-1.4561 3.25,-2.16184 5.20032,-2.05318 7.89812,-4.97672 7.30463,-7.91586 -0.28249,-1.39899 -0.73653,-3.89362 -1.00897,-5.54362 -1.31462,-7.96196 -3.72494,-20.37568 -4.58542,-23.61602 -0.52811,-1.98881 -0.96022,-4.56241 -0.96022,-5.7191 0,-1.1567 -1.12807,-5.55884 -2.50682,-9.78253 -2.87138,-8.79623 -4.43466,-21.38235 -2.65583,-21.38235 0.6185,0 1.42197,1.2375 1.7855,2.75 0.36352,1.5125 1.43367,4.325 2.3781,6.25 0.94443,1.925 1.98165,6.425 2.30494,10 0.32328,3.575 1.47516,9.425 2.55972,13 1.08456,3.575 2.20779,8.3 2.49607,10.5 1.26801,9.67688 3.90146,24.06291 4.52839,24.73772 0.37695,0.40575 2.29485,-0.12491 4.262,-1.17924 1.96715,-1.05433 5.30354,-2.24093 7.41421,-2.63689 2.11067,-0.39597 4.70753,-1.53041 5.77079,-2.52099 1.06326,-0.99058 3.33489,-2.10337 5.04806,-2.47286 1.71318,-0.3695 4.91487,-1.61233 7.11487,-2.76184 2.2,-1.14952 5.8,-2.61787 8,-3.26301 2.2,-0.64513 6.475,-2.14648 9.5,-3.33632 15.19018,-5.97486 22.11189,-8.28802 22.7853,-7.61461 1.14298,1.14298 -2.3327,3.47848 -8.77309,5.89511 -8.11633,3.0455 -8.16884,3.21766 -8.05307,26.40293 0.0556,11.144 -0.27586,17.25 -0.93651,17.25 -0.63513,0 -1.08232,-4.83124 -1.18016,-12.75 z m -354.84247,9.87244 c 0,-1.21995 0.63782,-2.12244 1.5,-2.12244 0.825,0 1.5,0.3949 1.5,0.87756 0,0.48265 -0.675,1.43775 -1.5,2.12244 -1.2532,1.04007 -1.5,0.89568 -1.5,-0.87756 z m 281,-1.56342 c 0,-1.95746 0.17393,-3.55902 0.3865,-3.55902 0.82118,0 1.23499,6.1159 0.44677,6.60305 -0.4583,0.28324 -0.83327,-1.08657 -0.83327,-3.04403 z m -320.99997,-0.059 c 0,-1.12782 0.7018,-1.53943 2.25,-1.31955 1.2375,0.17575 2.25,0.76955 2.25,1.31955 0,0.55 -1.0125,1.1438 -2.25,1.31955 -1.5482,0.21988 -2.25,-0.19173 -2.25,-1.31955 z m 626.55256,-3.25 c -0.3134,-2.6125 -1.016,-6.66896 -1.5612,-9.01435 -0.5453,-2.34539 -0.9912,-5.27039 -0.9911,-6.5 5e-4,-2.75742 -7.4472,-42.66337 -11.4262,-61.22365 -0.941,-4.38927 -1.1465,-7.33955 -0.5528,-7.93333 0.52,-0.51994 1.1129,-0.75034 1.3177,-0.512 1.0261,1.1941 4.6658,17.07788 4.6978,20.50143 0.02,2.16254 0.7114,7.0819 1.536,10.9319 6.6499,31.04899 8.3223,40.28733 9.0819,50.1688 0.4398,5.72152 0.3001,8.3312 -0.4459,8.3312 -0.5974,0 -1.3427,-2.1375 -1.6562,-4.75 z m -649.240561,-1 c 3.1348,-29.4791 3.8967,-43.77118 2.4816,-46.54897 -0.5657,-1.11061 -0.5333,-3.02381 0.085,-5 0.5507,-1.76057 1.1408,-5.66834 1.3114,-8.68395 0.2668,-4.71394 0.046,-5.53432 -1.5752,-5.84942 -1.0371,-0.20157 -4.6415,-2.23426 -8.01,-4.51708 -3.3684,-2.28282 -7.2746,-4.74482 -8.6805,-5.47112 -1.4059,-0.72629 -5.0014,-4.96134 -7.9901,-9.41122 -2.9887,-4.44988 -7.0998,-10.12117 -9.1358,-12.60286 -2.036,-2.4817 -3.4412,-4.93395 -3.1226,-5.44945 0.8121,-1.31399 7.2252,6.28824 13.4312,15.92156 4.5029,6.98962 8.8813,11.36251 11.377,11.36251 0.3714,0 0.3787,-1.35 0.016,-3 -0.9854,-4.48676 1.2297,-3.71764 2.4608,0.85442 0.6074,2.25569 2.3625,4.95175 4.2313,6.5 3.9005,3.23132 4.7986,3.30473 4.8397,0.39558 0.031,-2.19371 0.068,-2.20144 1.5,-0.30887 1.4118,1.86651 1.4682,1.84083 1.4682,-0.66821 0,-1.43514 0.2835,-3.34799 0.6299,-4.25079 0.4367,-1.138 -0.027,-1.81314 -1.5109,-2.20128 -2.2988,-0.60114 -2.6738,-1.69085 -3.6388,-10.57445 -0.5104,-4.69848 -0.3366,-5.86425 0.9474,-6.35699 0.8648,-0.33186 1.5724,-1.44112 1.5724,-2.46501 0,-1.24394 -0.4977,-1.67064 -1.5,-1.28603 -1.2777,0.49031 -1.4953,-1.03331 -1.4682,-10.28138 0.023,-7.95837 0.4238,-11.37524 1.5,-12.79812 0.8075,-1.06762 1.4682,-3.19855 1.4682,-4.73541 l 0,-2.79428 -5.25,2.10835 c -7.25,2.91156 -8.75,3.26087 -8.75,2.03774 0,-0.58189 2.7338,-2.51506 6.075,-4.29592 6.6083,-3.5222 11.7072,-8.81966 12.5945,-13.08503 0.3095,-1.48812 2.0357,-4.42641 3.8359,-6.52951 3.2125,-3.75316 3.2962,-4.10056 4.5291,-18.79432 1.1998,-14.29965 2.1197,-18.11125 4.0788,-16.90046 1.209201,0.74731 1.085201,11.0412 -0.2641,21.92997 -0.6134,4.95 -1.068,10.575 -1.0102,12.5 0.2789,9.28859 -0.063,12.27729 -1.8555,16.22679 -1.0668,2.35026 -1.9494,4.83571 -1.9615,5.52321 -0.03,1.71155 4.6343,1.58823 5.2975,-0.14005 0.5819,-1.51654 6.174401,-4.60995 8.334201,-4.60995 2.379,0 1.4342,2.93985 -1.1537,3.58936 -1.375,0.3451 -2.5,0.97619 -2.5,1.40242 0,0.42622 -0.9,1.01031 -2,1.29797 -1.2666,0.33124 -2.000001,1.36401 -2.000001,2.81663 0,1.78393 0.266701,2.02695 1.200001,1.09362 1.9452,-1.94521 2.8,-1.39571 2.8,1.8 0,1.65 -0.45,3 -1,3 -0.55,0 -1,-0.47656 -1,-1.05902 0,-0.58246 -0.4573,-0.77636 -1.0163,-0.4309 -0.559,0.34546 -0.7825,1.00641 -0.4967,1.46878 1.1189,1.81052 -0.861301,3.99869 -5.075101,5.60796 -4.415,1.68608 -5.5091,3.0549 -3.1619,3.95562 1.8314,0.70277 1.5243,5.62691 -0.5482,8.78994 -1.4971,2.28487 -1.832,5.20787 -2,17.45602 l -0.2018,14.7116 3.5,-0.26982 3.5,-0.26981 -3.5,3.13719 c -3.4814,3.12057 -3.4854,3.13383 -0.75,2.50077 2.0724,-0.47962 2.75,-0.26215 2.75,0.88262 0,1.9744 1.4433,1.93296 3.476,-0.0998 1.4806,-1.48056 1.483,-1.76901 0.028,-3.37645 -1.4494,-1.6016 -1.4501,-1.81149 -0.01,-2.36493 0.8705,-0.33404 2.453701,-0.0634 3.518201,0.6014 1.5165,0.94704 2.2008,0.94353 3.1605,-0.0162 2.0805,-2.08048 3.6424,-1.37178 4.9507,2.24628 1.0558,2.9197 1.6222,3.37914 3.5648,2.89159 2.6351,-0.66138 3.0515,0.77644 0.7725,2.66781 -0.8453,0.70155 -1.4078,2.0862 -1.25,3.077 0.1578,0.99081 -0.163,1.93442 -0.713,2.09691 -0.55,0.1625 -1.1472,-0.74248 -1.327,-2.01105 -0.4087,-2.88337 -4.6681,-5.09847 -6.4251,-3.34141 -0.9305,0.93044 -0.929,1.62836 0.01,3.12651 1.4587,2.33572 -0.025,3.60593 -1.7637,1.51039 -0.6799,-0.81895 -1.8184,-1.489 -2.5302,-1.489 -0.711801,0 -1.491001,-0.5625 -1.731401,-1.25 -0.3308,-0.94554 -0.8991,-0.87085 -2.3334,0.30664 -1.0428,0.85615 -3.1336,2.084 -4.6461,2.72856 -2.7509,1.17232 -3.2052,2.39999 -1.9297,5.2148 0.8706,1.92119 3.0245,2.37369 4.696,0.98653 0.9427,-0.78242 1.503,-0.76442 2.0154,0.0647 1.063,1.71988 -2.9907,6.48464 -5.3022,6.2324 -1.6669,-0.18189 -2.1512,0.6938 -3.0422,5.5 -0.5828,3.14398 -1.3338,8.64133 -1.6689,12.21633 -0.3352,3.575 -1.0327,8.525 -1.5502,11 -0.5174,2.475 -1.1347,7.29516 -1.3717,10.71148 -0.4807,6.93028 -1.0136,8.28852 -3.252,8.28852 -1.2384,0 -1.4393,-0.92394 -1.0324,-4.75 z m 7.0813,-93.749 c 0.3303,-3.29944 1.0548,-6.15038 1.6099,-6.33541 0.5551,-0.18502 0.7976,-0.67882 0.539,-1.09731 -0.2587,-0.4185 -0.082,-3.19256 0.3929,-6.16459 0.9724,-6.08753 0.778,-6.7404 -1.4554,-4.88685 -1.0771,0.89394 -1.3747,2.18487 -0.9497,4.12003 0.7527,3.427 -0.2188,6.90616 -1.841,6.59282 -0.6539,-0.12633 -1.1515,0.55781 -1.1057,1.52031 0.046,0.9625 0.172,4.7875 0.2804,8.5 0.2336,7.99925 1.6275,6.75992 2.5296,-2.249 z m -4.1778,-15.16688 c 0.1767,-2.29124 -0.024,-3.95218 -0.4471,-3.69099 -0.4226,0.2612 -0.7162,2.81085 -0.6524,5.66589 0.1245,5.5734 0.5805,4.75447 1.0995,-1.9749 z m 6.213,-16.90555 c 0.8643,-0.86428 1.5715,-2.94438 1.5715,-4.62244 0,-2.68669 -0.1916,-2.89204 -1.6042,-1.71967 -1.9476,1.61632 -3.6226,5.73764 -2.844,6.99746 0.7639,1.23595 1.0508,1.17059 2.8767,-0.65535 z M 148.60377,629.9732 c -0.65087,-0.65086 -0.157,-2.64444 1.52409,-6.15223 1.36152,-2.84097 6.70471,-3.23363 6.80373,-0.5 0.0454,1.25412 0.33851,1.06145 1.03434,-0.67994 0.91355,-2.28629 1.07138,-2.32952 2.66966,-0.73124 2.59328,2.59328 0.47679,5.19379 -4.10125,5.03917 -2.71797,-0.0918 -3.75975,0.34158 -4.20676,1.75 -0.5777,1.82017 -2.51498,2.48308 -3.72381,1.27424 z M 42.442429,626.34876 c -0.8358,-5.19954 -1.1432,-21.77885 -0.4038,-21.77829 0.3687,2.7e-4 0.9446,3.038 1.2799,6.7505 0.3352,3.7125 0.848,9.06927 1.1395,11.90393 0.59,5.73688 -1.1597,8.44869 -2.0156,3.12386 z m 188.925781,2.22221 c -0.33992,-0.55 0.30852,-1 1.44098,-1 1.13246,0 2.05902,0.45 2.05902,1 0,0.55 -0.64844,1 -1.44098,1 -0.79254,0 -1.7191,-0.45 -2.05902,-1 z m -53.14405,-4.25 c 1.97765,-13.57175 2.65149,-23.86755 1.6808,-25.68131 -0.57022,-1.06546 -1.04457,-3.87929 -1.05412,-6.25295 -0.01,-2.37366 -0.68455,-7.46557 -1.5,-11.31537 -1.75562,-8.28838 -1.69775,-7.50037 -0.55085,-7.50037 0.51248,0 1.72725,3.4875 2.69947,7.75 l 1.76768,7.75 1.36818,-6.5 c 1.81795,-8.63683 2.84135,-17.81198 3.71919,-33.34389 0.39925,-7.06414 1.08558,-12.46414 1.52517,-12 0.4396,0.46414 0.40061,4.89389 -0.0866,9.84389 -0.48725,4.95 -0.96607,19.35 -1.06404,32 -0.14852,19.17743 -0.3286,21.75671 -1.08357,15.51923 -0.87119,-7.19779 -1.3192,-8.83249 -2.17489,-7.9359 -0.21871,0.22917 -0.88275,9.32941 -1.47564,20.22276 -0.5929,10.89335 -1.34051,20.23085 -1.66136,20.75 -1.5395,2.49095 -2.6911,0.68602 -2.10938,-3.30609 z m 190.06574,2.90653 c -0.33108,-0.86279 0.11359,-4.71481 0.98817,-8.56003 0.87458,-3.84522 1.59014,-9.41074 1.59014,-12.36783 0,-3.93954 0.93544,-7.53512 3.5,-13.45304 2.1054,-4.85838 3.5,-9.69964 3.5,-12.15004 0,-2.24044 1.38361,-7.57274 3.07468,-11.84956 4.87329,-12.3248 6.81854,-12.40182 2.90748,-0.11512 -1.10981,3.4865 -2.48638,9.92665 -3.05905,14.31143 -0.614,4.70123 -2.07153,10.02366 -3.55228,12.97178 -1.61979,3.22491 -2.85053,7.98682 -3.46743,13.41598 -0.52599,4.62911 -1.21444,8.83416 -1.52988,9.34454 -0.31543,0.51039 -0.57352,2.45539 -0.57352,4.32222 0,3.85401 -2.37161,6.75309 -3.37831,4.12967 z m 18.34256,-18.96026 c 0.43481,-27.80197 0.90953,-29.44093 1.07061,-3.69627 0.074,11.825 -0.20771,22.03832 -0.62598,22.69627 -0.41827,0.65794 -0.61836,-7.89206 -0.44463,-19 z M 129.2482,626.11886 c -1.22167,-3.1836 2.31501,-4.82523 4.56212,-2.11763 0.9479,1.14215 0.78437,1.64575 -0.81181,2.5 -2.61697,1.40056 -3.08442,1.3529 -3.75031,-0.38237 z m 97.63532,-0.79789 c 0.0124,-1.81944 0.20082,-1.96296 0.98469,-0.75 1.25292,1.93876 1.25292,3 0,3 -0.55,0 -0.99311,-1.0125 -0.98469,-2.25 z m 442.14257,0.25 c 0,-1.375 0.227,-1.9375 0.5044,-1.25 0.2774,0.6875 0.2774,1.8125 0,2.5 -0.2774,0.6875 -0.5044,0.125 -0.5044,-1.25 z m -428.57352,-1.25 c 1.04188,-1.2375 1.98168,-2.40756 2.08845,-2.60014 0.10677,-0.19257 0.70338,-0.0354 1.3258,0.34928 1.43206,0.88506 -1.6276,4.50086 -3.80859,4.50086 -1.21649,0 -1.14196,-0.42526 0.39434,-2.25 z m 75.07063,-0.57874 c -1.73638,-1.91868 -2.20652,-4.17126 -0.8706,-4.17126 0.43142,0 1.58186,1.35 2.55654,3 1.95665,3.31235 0.90986,4.03959 -1.68594,1.17126 z m 382.15919,-3.15212 c -0.6646,-4.34214 -0.4131,-5.95142 0.7484,-4.78989 0.3094,0.30942 0.4219,2.52192 0.25,4.91667 l -0.3126,4.35408 -0.6858,-4.48086 z m -439.81418,1.61526 c 0,-0.71656 1.8,-3.87242 4,-7.01302 2.2,-3.14061 4,-5.92155 4,-6.17988 0,-0.76353 6.42503,-6.38024 7.33499,-6.41219 0.45924,-0.0161 -1.05641,2.10819 -3.36812,4.72069 -2.3117,2.6125 -5.36133,7.09751 -6.77696,9.96668 -2.48594,5.03847 -5.18991,7.60063 -5.18991,4.91772 z m 165.23199,-1.6344 c 0,-1.925 0.2058,-2.7125 0.45733,-1.75 0.25152,0.9625 0.25152,2.5375 0,3.5 -0.25153,0.9625 -0.45733,0.175 -0.45733,-1.75 z m -100.23199,-2.07879 c -12.72468,-5.81352 -7.69883,-5.03199 7.75,1.20515 3.21514,1.29804 4.41598,2.96477 2,2.77594 -0.6875,-0.0537 -5.075,-1.84522 -9.75,-3.98109 z m 21.72738,3.07879 c -0.92169,-2.37496 -1.50839,-22.01731 -0.67306,-22.53357 0.8657,-0.53503 2.39039,19.20097 1.70783,22.10666 -0.35856,1.52645 -0.57362,1.61517 -1.03477,0.42691 z m -230.49826,-4.1875 c 0.6181,-1.85422 2.7709,-2.16176 2.7709,-0.39583 0,0.87083 -0.7125,1.58333 -1.5834,1.58333 -0.8708,0 -1.4052,-0.53438 -1.1875,-1.1875 z m 12.9775,-0.85318 c -1.4475,-2.31794 -0.6778,-4.35412 1.3516,-3.57536 1.07284,0.4117 1.14983,-0.0216 0.36879,-2.0759 -1.56309,-4.11129 -1.95909,-4.41881 -3.59009,-2.78785 -1.2021,1.20211 -1.2781,1.8457 -0.3501,2.96386 1.2181,1.46781 0.6167,3.51593 -1.0324,3.51593 -1.2564,0 -3.4805,-5.55489 -4.3042,-10.75 -0.7677,-4.84192 0.5538,-5.65906 2.5452,-1.57384 0.7175,1.47188 1.902,2.87103 2.6322,3.10922 1.0483,0.34193 1.1676,-0.58938 0.567,-4.42616 -0.4183,-2.67257 -0.7081,-5.53422 -0.644,-6.35922 0.6443,-8.28347 1.0524,-10.26024 2.2745,-11.01552 1.2044,-0.74438 1.2175,-1.52172 0.087,-5.18014 -1.4137,-4.57557 -1.4731,-5.62629 -0.8927,-15.80434 0.3277,-5.74813 0.6192,-6.53612 2.52017,-6.8123 1.77151,-0.25737 2.34876,0.42739 3.28203,3.89331 0.80704,2.99712 0.82252,4.39716 0.0539,4.87222 -1.15811,0.71575 -1.57192,9.66681 -0.9152,19.79677 0.29022,4.47684 0.0586,6.25 -0.81638,6.25 -1.73082,0 -2.79982,8.28003 -1.40531,10.88563 1.16931,2.18488 4.06121,2.93159 4.06121,1.04863 0,-0.58616 -0.47493,-1.95316 -1.0554,-3.03777 -1.42778,-2.66773 -0.25366,-5.89649 2.14418,-5.89649 2.71873,0 4.58579,-4.3093 3.14487,-7.25854 -1.44182,-2.95108 -2.14826,-12.14274 -1.07997,-14.05168 1.89666,-3.38914 6.84627,1.16429 6.84627,6.29826 0,3.70257 1.94918,3.01379 3.95952,-1.39918 2.74665,-6.02927 2.57738,-7.93964 -0.95045,-10.7263 -1.645,-1.29941 -2.995,-3.16451 -3,-4.14468 -0.005,-0.98016 -0.657,-3.33284 -1.44892,-5.22816 -0.79191,-1.89532 -1.05319,-3.685 -0.58062,-3.97707 0.96246,-0.59483 3.52429,1.69171 5.01393,4.47513 0.62871,1.17476 1.68618,1.64725 2.9481,1.31725 1.47044,-0.38453 2.09024,0.0806 2.45242,1.8402 0.26657,1.29512 0.76189,3.70477 1.10071,5.35477 0.9509,4.63074 0.6693,7.28283 -1.14497,10.78333 -0.91694,1.76917 -1.82538,6.02502 -2.01875,9.45746 -0.30505,5.41478 -1.26578,10.10477 -3.86561,18.87087 -0.70731,2.3849 2.2395,5.99913 6.78464,8.32129 5.81658,2.97176 2.26925,4.05805 -11.45733,3.50854 -5.66331,-0.22671 -9.95798,0.017 -10.30901,0.58495 -0.91908,1.4871 -1.87653,1.1753 -3.27703,-1.06712 z m 12.75793,-6.70932 c -0.0195,-1.5125 -0.72016,-3.875 -1.55705,-5.25 l -1.52163,-2.5 0.72553,3 c 0.39904,1.65 0.76221,4.0125 0.80706,5.25 0.11783,3.25179 1.58831,2.77625 1.54609,-0.5 z m 4.36278,-13.07077 c 1.01511,-1.73812 1.66658,-3.69747 1.4477,-4.3541 -0.21887,-0.65663 -1.59463,0.9472 -3.05722,3.56407 -2.9017,5.1917 -1.39354,5.93197 1.60952,0.79003 z m -2.71939,-3.92923 c 0.73065,-0.9625 1.34275,-2.37319 1.36025,-3.13486 0.0178,-0.77317 -0.8516,-0.2618 -1.9682,1.15773 -1.1,1.39842 -2,2.80911 -2,3.13486 0,1.14725 1.29443,0.57263 2.60795,-1.15773 z m -1.62326,-14 c -0.0111,-2.00139 -0.25818,-2.36635 -0.90748,-1.34068 -0.49069,0.77512 -0.66066,2.01262 -0.3777,2.75 0.81146,2.11462 1.30181,1.57691 1.28518,-1.40932 z M 21.868229,601.93431 c 0,-15.80887 1.6732,-33.36334 3.18,-33.36334 0.451,0 0.82,1.60156 0.82,3.55902 0,2.58106 0.3435,3.35266 1.25,2.80804 0.8521,-0.51196 0.8139,-0.21342 -0.12,0.93799 -1.5125,1.86467 -2.9969,17.50614 -3.0791,32.44495 -0.03,5.46606 -0.46,9.25 -1.0509,9.25 -0.6241,0 -1,-5.87889 -1,-15.63666 z m 96.500001,14.63666 c -1.0769,-1.74239 0.5193,-3.22888 2.078,-1.93525 0.77,0.63902 1.1534,1.56088 0.8519,2.04856 -0.7294,1.18032 -2.1647,1.12481 -2.9299,-0.11331 z m 176.12187,0.19722 c -0.77111,-1.24767 9.25473,-2.17391 11.37811,-1.05116 1.02995,0.54458 0.52073,0.80265 -1.625,0.82353 -1.71875,0.0167 -4.47667,0.30074 -6.12872,0.63115 -1.65205,0.33041 -3.28302,0.14883 -3.62439,-0.40352 z m 302.01427,-0.69148 c 0.31537,-0.82184 0.97625,-1.24528 1.46861,-0.94098 1.41193,0.87262 1.04399,2.43524 -0.5734,2.43524 -0.89208,0 -1.24351,-0.5866 -0.89521,-1.49426 z m -353.63616,-4.50574 c 0,-5.90623 1.48575,-6.47502 3.61322,-1.38327 1.77414,4.24611 1.24453,6.38327 -1.58184,6.38327 -1.77099,0 -2.03138,-0.64092 -2.03138,-5 z m 179.19494,0.5 c 0.0204,-1.65 0.2445,-2.20394 0.49804,-1.23097 0.25354,0.97297 0.23687,2.32297 -0.0371,3 -0.27393,0.67703 -0.48137,-0.11903 -0.46099,-1.76903 z m 129.3693,0.79313 c -0.54268,-1.4252 -0.42782,-1.54006 0.5598,-0.5598 0.68342,0.67834 0.99067,1.48524 0.68278,1.79313 -0.30789,0.30789 -0.86705,-0.24711 -1.24258,-1.23333 z m 118.2129,-6.11288 c 0.4586,-11.39563 0.9344,-12.80814 1.0713,-3.18025 0.067,4.675 -0.2169,9.03111 -0.6297,9.68025 -0.4128,0.64914 -0.6115,-2.27586 -0.4416,-6.5 z m -239.67272,-1.43943 c -2.17868,-14.3954 -2.26804,-15.35274 -1.28258,-13.74082 1.03751,1.69706 3.69134,20.8201 2.98708,21.52436 -0.25151,0.25151 -1.01853,-3.25108 -1.7045,-7.78354 z m 153.39553,6.25918 c 0.33992,-0.55 1.04148,-1 1.55902,-1 0.51754,0 0.94098,0.45 0.94098,1 0,0.55 -0.70156,1 -1.55902,1 -0.85746,0 -1.2809,-0.45 -0.94098,-1 z m -97.5,-2.10699 c 0,-1.44523 0.46281,-1.92939 1.47355,-1.54153 0.81046,0.311 1.83236,-0.0757 2.27089,-0.85931 0.49834,-0.89047 1.63325,-1.20616 3.02645,-0.84183 3.14473,0.82236 2.76703,2.29208 -0.77089,2.99966 -1.65,0.33 -3,0.99375 -3,1.475 0,0.48125 -0.675,0.875 -1.5,0.875 -0.85872,0 -1.5,-0.90078 -1.5,-2.10699 z m 203.67929,-4.39301 c 0.3268,-3.85 0.7576,-7.1875 0.9574,-7.41667 0.782,-0.8969 0.1702,10.53506 -0.6644,12.41667 -0.5596,1.26135 -0.6678,-0.58526 -0.293,-5 z M 37.500929,608.0564 c -0.348,-0.90695 -0.6328,-3.07487 -0.6328,-4.81759 0,-1.74272 -0.7127,-6.31842 -1.5837,-10.16821 -1.1584,-5.11934 -1.7265,-14.78982 -2.115,-35.99963 -0.5548,-30.29177 0.1628,-37.90379 1.3146,-13.94387 0.3687,7.66913 1.0228,14.17494 1.4536,14.45736 1.0711,0.70227 4.6333,23.44722 5.401,34.48651 0.8319,11.96083 -0.8804,9.22057 -2.4993,-4 -0.6735,-5.5 -1.6371,-10.675 -2.1414,-11.5 -0.6363,-1.04108 -0.7628,-0.58217 -0.4136,1.5 0.2767,1.65 0.7722,5.7 1.101,9 0.3288,3.3 1.0876,9.28683 1.6863,13.30408 0.735,4.93254 0.7594,7.63303 0.075,8.31722 -0.6842,0.68418 -1.2186,0.47772 -1.646,-0.63587 z m -1.4643,-38.71698 c -0.7421,-0.74207 -0.8722,-0.35164 -0.4373,1.31171 0.3537,1.3522 0.8069,1.8055 1.0566,1.05655 0.2405,-0.72144 -0.038,-1.78716 -0.6193,-2.36826 z m -0.4854,-6.95595 c -0.3192,-0.79773 -0.5561,-0.56078 -0.6041,0.60417 -0.043,1.05416 0.1929,1.64479 0.5252,1.3125 0.3323,-0.3323 0.3678,-1.1948 0.079,-1.91667 z M 150.53483,607.9043 c -1.54148,-1.54147 -0.58393,-3.46063 1.57311,-3.15288 2.8311,0.40391 3.72554,3.81955 1.00021,3.81955 -1.04866,0 -2.20666,-0.3 -2.57332,-0.66667 z m 7.33333,-2.33333 c 0,-0.55 0.9,-1 2,-1 1.1,0 2,0.45 2,1 0,0.55 -0.9,1 -2,1 -1.1,0 -2,-0.45 -2,-1 z m 540.25219,-4.5 c 0.011,-2.2 0.2159,-2.98225 0.4551,-1.73834 0.2392,1.24391 0.2301,3.04391 -0.02,4 -0.2503,0.95609 -0.446,-0.0617 -0.4349,-2.26166 z m -56.2522,-0.5 c 0,-1.42857 0.6667,-2 2.3333,-2 3.0098,0 3.9358,0.9708 2.5356,2.65799 -1.735,2.09057 -4.8689,1.66706 -4.8689,-0.65799 z m -381.41703,-0.86579 c -0.43077,-0.697 -0.51316,-1.53733 -0.18309,-1.86741 0.89497,-0.89496 1.87077,0.4213 1.38739,1.87145 -0.33872,1.01617 -0.57427,1.01538 -1.2043,-0.004 z m 47.42441,-1.3667 c -1.92096,-0.52274 -4.95021,-0.71391 -6.73168,-0.42482 -3.65268,0.59275 -5.06007,-0.69264 -3.20532,-2.92747 1.02805,-1.23873 0.67501,-2.08272 -2.04519,-4.88926 -1.80826,-1.86564 -4.57866,-3.9268 -6.15646,-4.58034 -1.71863,-0.71188 -2.86871,-1.94143 -2.86871,-3.06694 0,-3.1964 -1.85496,-2.06643 -2.18664,1.33202 -0.24205,2.48003 -0.8823,3.34206 -2.81336,3.78788 -2.1063,0.48629 -2.66532,1.43397 -3.5498,6.01774 -0.62833,3.25629 -1.35683,4.94377 -1.81455,4.20317 -0.42061,-0.68056 -0.48577,-2.11636 -0.1448,-3.19067 0.34097,-1.0743 0.11444,-2.89782 -0.5034,-4.05226 -0.99727,-1.86342 -0.769,-2.23241 2.03388,-3.28778 2.85471,-1.07487 3.10606,-1.50466 2.62325,-4.48542 -0.46353,-2.86175 -0.1785,-3.45269 2.16072,-4.47964 3.17884,-1.39556 4.15856,-2.57391 4.17939,-5.02677 0.008,-0.99168 1.14031,-3.45864 2.51531,-5.48214 1.375,-2.02349 2.5,-4.92462 2.5,-6.44694 0,-1.52233 0.45,-2.76787 1,-2.76787 0.55,0 1,0.45 1,1 0,0.55 1.6875,1.06742 3.75,1.14983 3.3827,0.13516 3.45616,0.19167 0.75,0.57695 -3.73972,0.53243 -5.79323,2.27322 -2.68159,2.27322 1.22012,0 4.44206,1.16272 7.15986,2.58382 2.71781,1.4211 5.40953,2.29454 5.9816,1.94098 0.57207,-0.35356 1.04013,0.0241 1.04013,0.83926 0,0.81515 1.38136,2.86345 3.06968,4.55178 2.41609,2.41608 2.90499,3.5503 2.29617,5.32692 -0.42543,1.24148 -0.69853,3.51224 -0.60689,5.04614 0.12546,2.09978 -0.42076,3.01222 -2.2106,3.69271 -1.30747,0.4971 -2.65563,1.78101 -2.99591,2.85314 -0.63542,2.00201 -3.15552,3.07623 -7.55245,3.21928 -2.27219,0.0739 -2.31775,0.15491 -0.5,0.88876 4.48409,1.8103 11.02728,2.90143 11.95,1.99275 0.5225,-0.51455 2.55047,-0.93554 4.5066,-0.93554 1.95613,0 5.0802,-0.43696 6.94237,-0.97103 1.86218,-0.53406 3.87967,-0.66578 4.48332,-0.2927 1.38761,0.85759 -2.68641,2.03151 -7.51017,2.16405 -1.99533,0.0548 -5.14533,0.71122 -7,1.45866 -2.43981,0.98325 -4.33775,1.0962 -6.86476,0.40853 z m -53.00736,-0.70849 c 0,-0.51754 0.45,-1.2191 1,-1.55902 0.55,-0.33992 1,0.0835 1,0.94098 0,0.85746 -0.45,1.55902 -1,1.55902 -0.55,0 -1,-0.42344 -1,-0.94098 z m 136.04073,-4.05902 c -0.0313,-8.56429 1.93406,-28.79241 3.41368,-35.13498 1.1357,-4.86832 1.12686,-5.81172 -0.0587,-6.26667 -1.98048,-0.75998 -1.73251,-2.59407 0.35431,-2.62059 0.9625,-0.0122 2.875,-0.90222 4.25,-1.97776 3.91937,-3.06578 4.70518,-2.33319 1.34082,1.25 -1.67834,1.7875 -3.3499,4.09591 -3.71459,5.1298 -1.39927,3.96688 -3.2904,20.59088 -3.53952,31.11404 -0.27121,11.4569 -2.00882,18.68095 -2.04598,8.50616 z m 28.14718,-0.72523 c -1.84854,-9.74089 -2.21552,-12.88554 -1.31577,-11.27477 0.9705,1.73745 3.38219,16.07899 2.8015,16.65968 -0.21442,0.21442 -0.883,-2.20879 -1.48573,-5.38491 z m 167.81208,4.72523 c 0,-0.55 0.45,-1 1,-1 0.55,0 1,0.45 1,1 0,0.55 -0.45,1 -1,1 -0.55,0 -1,-0.45 -1,-1 z m 80.13739,-2 c -0.074,-1.925 0.4764,-6.70607 1.2237,-10.6246 0.7484,-3.92412 0.9933,-7.77773 0.5451,-8.57854 -0.4634,-0.82809 -0.1879,-3.53317 0.6401,-6.28433 0.7995,-2.65671 1.4537,-6.64887 1.4537,-8.87146 0,-2.57659 0.3473,-3.69381 0.9582,-3.08285 0.5992,0.59916 0.6231,3.32897 0.064,7.28488 -0.4918,3.47966 -0.6674,6.91774 -0.3902,7.64017 0.2772,0.72243 -0.4124,5.74674 -1.5324,11.16512 -1.1201,5.41839 -2.2144,10.97661 -2.4318,12.35161 -0.2928,1.85146 -0.4304,1.59204 -0.5304,-1 z m -383.63738,1.26828 c 1.41586,-1.42125 7.5,-2.42982 7.5,-1.24328 0,0.53625 -0.7875,0.98114 -1.75,0.98865 -0.9625,0.008 -2.875,0.29373 -4.25,0.63605 -1.67171,0.41618 -2.16868,0.28981 -1.5,-0.38142 z m 176.44611,-1.35706 c -1.22649,-0.80506 -1.16558,-1.16372 0.40108,-2.36154 1.84644,-1.41174 4.6528,-1.09681 4.6528,0.52213 0,1.56366 -3.52141,2.84532 -5.05388,1.83941 z m 57.13283,-0.49455 c 0.048,-1.16495 0.28494,-1.4019 0.60416,-0.60417 0.28887,0.72187 0.25335,1.58437 -0.0789,1.91667 -0.33229,0.33229 -0.56864,-0.25834 -0.52522,-1.3125 z M 93.819829,593.73292 c -3.011,-2.43816 -1.8867,-3.91328 3.0344,-3.98119 3.297801,-0.0455 4.013901,0.28394 4.013901,1.84674 0,1.04617 -0.870401,2.36797 -1.934201,2.93732 -2.5052,1.34072 -2.4577,1.34818 -5.1141,-0.80287 z m 249.721881,0.39009 c -1.57614,-1.19461 -1.75752,-2.43652 -1.32347,-9.06139 0.27664,-4.22237 0.79183,-7.96588 1.14485,-8.3189 0.35303,-0.35303 1.39859,0.29867 2.32347,1.44821 0.92489,1.14955 2.41229,2.3444 3.30534,2.65522 1.58633,0.55213 3.46524,6.73954 2.9531,9.72482 -0.38279,2.23126 -3.16358,5.00445 -4.98182,4.9682 -0.87725,-0.0175 -2.41692,-0.65476 -3.42147,-1.41616 z m 333.39674,-1.80204 c -0.039,-2.0625 0.3797,-3.75 0.9297,-3.75 1.1941,0 1.1941,2.72111 0,5.5 -0.6894,1.60437 -0.8733,1.2582 -0.9297,-1.75 z m -435.92704,-0.7718 c -0.91323,-2.21479 -4.91652,-21.07084 -5.66249,-26.67107 -0.16065,-1.20607 -0.65534,-2.78061 -1.09931,-3.49896 -0.44397,-0.71836 -1.31241,-6.03157 -1.92987,-11.80714 -1.24722,-11.66617 -4.58751,-21.26509 -6.67392,-19.17868 -1.66097,1.66097 -2.54958,1.47232 -3.76535,-0.79937 -0.92383,-1.72618 -0.59561,-2.17024 2.58694,-3.5 4.81064,-2.01001 7.07961,-2.04588 5.45322,-0.0862 -0.9348,1.12636 -0.75684,3.0169 0.82362,8.75 1.10882,4.02227 2.48122,10.76788 3.04977,14.99026 0.56855,4.22238 1.7577,9.62238 2.64256,12 5.34627,14.36551 8.20346,27.62129 6.57917,30.52372 -0.88763,1.58612 -1.08117,1.51635 -2.00434,-0.72257 z M 90.868129,589.0998 c 0,-1.01455 2.9202,-2.46707 3.3998,-1.69108 0.3177,0.51418 -0.3172,1.1689 -1.411,1.45494 -1.0938,0.28604 -1.9888,0.3923 -1.9888,0.23614 z m 606.199821,-6.52883 c -0.015,-5.98695 0.1601,-6.88224 0.8703,-4.43783 0.5119,1.76187 0.5202,4.94661 0.019,7.5 -0.8137,4.14926 -0.8716,3.95015 -0.8897,-3.06217 z m -37.8006,2.19467 c -1.5711,-2.0152 -2.2796,-4.83796 -2.8099,-11.19467 -0.3899,-4.675 -0.6899,-9.47825 -0.6666,-10.67388 0.068,-3.46388 -2.6727,-10.24031 -5.4991,-13.59928 -1.9083,-2.26795 -2.4561,-3.81419 -2.0574,-5.80763 0.5337,-2.66878 0.4691,-2.70776 -3.6614,-2.20707 -2.3126,0.28033 -6.5394,1.58477 -9.3929,2.89877 -2.8534,1.314 -6.2712,2.38909 -7.595,2.38909 -2.8648,0 -5.7169,-2.84676 -5.7169,-5.7063 0,-1.12684 -0.675,-2.60901 -1.5,-3.2937 -2.28912,-1.89981 -1.8132,-4 0.9064,-4 1.8661,0 2.2956,-0.42372 1.9129,-1.88714 -0.7049,-2.69554 1.0193,-3.33863 4.3266,-1.61371 5.4473,2.84099 6.8123,1.6244 3.2536,-2.89978 -1.538,-1.95524 -2.6497,-2.49605 -4.1513,-2.01946 -1.6087,0.51058 -1.9171,0.30267 -1.4308,-0.96451 0.4662,-1.21496 0.015,-1.6154 -1.818,-1.6154 -1.3408,0 -4.3065,-0.97401 -6.59042,-2.16447 -3.36128,-1.75199 -4.51053,-1.94094 -6.03079,-0.99152 -2.24119,1.39964 -2.42272,0.37844 -0.43676,-2.45691 1.09754,-1.56695 2.23074,-1.95476 4.75,-1.62556 3.20087,0.41828 3.23987,0.38174 1.2003,-1.12203 -1.15956,-0.85492 -3.73922,-1.72171 -5.73258,-1.9262 -1.99337,-0.2045 -4.41964,-1.05525 -5.39172,-1.89056 -2.346,-2.01592 -4.17357,-2.60963 -11.76742,-3.82275 -3.51511,-0.56154 -7.09061,-1.28941 -7.94556,-1.61748 -1.21868,-0.46766 -1.55444,0.14023 -1.55444,2.81432 0,2.59553 -0.84997,4.23457 -3.55588,6.85699 -3.42843,3.32264 -3.47589,3.46508 -1.32414,3.97375 1.22746,0.29017 2.43166,1.12734 2.676,1.86036 0.35015,1.05044 -0.61637,1.1869 -4.56236,0.64419 -4.03007,-0.55428 -5.80119,-0.28322 -9.08028,1.38964 -2.24052,1.14303 -4.71149,2.07823 -5.49106,2.07823 -2.72786,0 -4.057,3.24507 -5.14524,12.562 -0.88947,7.61514 -0.83949,9.88354 0.2642,11.99001 1.24099,2.36851 1.18121,2.64505 -0.67689,3.13095 -1.12096,0.29314 -2.3316,1.4577 -2.69032,2.5879 -0.63425,1.99834 -0.68135,2.00225 -1.71053,0.14203 -0.58207,-1.05209 -1.6058,-2.36289 -2.27496,-2.91289 -0.66915,-0.55 -1.44724,-2.35 -1.7291,-4 -0.28185,-1.65 -0.83202,-4.0125 -1.22258,-5.25 -1.15185,-3.6496 1.35759,-2.66502 3.23342,1.26863 1.50972,3.16592 4.15247,4.37404 3.54436,1.62028 -0.13495,-0.6111 -0.5392,-6.91666 -0.89832,-14.01234 -0.63109,-12.46916 -0.57386,-13.01387 1.70865,-16.26391 3.99718,-5.69155 7.94324,-7.45445 10.64297,-4.75472 0.81058,0.81058 2.13909,0.76019 4.95,-0.18775 2.11313,-0.71262 4.51706,-1.32369 5.34206,-1.35793 1.62596,-0.0675 6,-2.69331 6,-3.60192 0,-0.79076 -5.77248,-2.6571 -10.5,-3.39482 -11.41584,-1.78143 -36.40331,-8.99554 -35.22816,-10.17069 0.33572,-0.33572 5.97544,1.00849 10.22816,2.43784 9.77681,3.28603 25.03204,6.74045 42.9007,9.71451 5.44539,0.90634 11.74539,2.3064 14,3.11127 2.25462,0.80486 6.3493,1.35119 9.0993,1.21407 3.01305,-0.15023 6.53879,0.42164 8.87209,1.43909 2.1297,0.92861 4.6388,1.68839 5.5757,1.68839 0.937,0 2.7605,1.125 4.0522,2.5 1.2918,1.375 3.323,2.5 4.5138,2.5 2.5579,0 4.4062,3.47545 5.1715,9.72443 0.7088,5.78737 -1.0506,5.48204 -3.223,-0.55934 -1.5124,-4.20586 -2.0459,-4.77617 -4.1005,-4.38343 -1.299,0.24832 -2.3618,0.79236 -2.3618,1.20896 0,0.57277 4.3516,9.06627 5.5231,10.78012 0.1018,0.14891 2.5315,-0.23249 5.3994,-0.84754 6.5691,-1.40881 6.9633,-0.9644 11.1579,12.5768 1.7037,5.5 4.2832,13.73622 5.7323,18.30271 2.1572,6.79772 2.3884,8.45497 1.2757,9.14267 -0.9623,0.59473 -1.1282,1.67416 -0.5681,3.69729 0.435,1.57153 0.9588,3.74771 1.1639,4.83594 0.2052,1.08824 0.8102,2.41574 1.3444,2.95 1.1458,1.14576 1.3,3.59563 0.2214,3.51606 -0.4125,-0.0304 -1.6954,-1.26793 -2.8508,-2.75 z m -83.89919,-70.26662 c 0,-1.90972 -5.22967,-2.0749 -5.95373,-0.18804 -0.30402,0.79226 -0.32415,1.81037 -0.0447,2.26247 0.80546,1.30326 5.99847,-0.49262 5.99847,-2.07443 z m -474.68753,71.38884 c 0.7219,-0.28887 1.5844,-0.25335 1.9167,0.0789 0.3323,0.33229 -0.2583,0.56864 -1.3125,0.52522 -1.1649,-0.048 -1.401901,-0.28494 -0.6042,-0.60416 z m 397.98571,0.11388 c -0.63009,-0.97248 0.80057,-20.56906 1.67407,-22.93077 0.64031,-1.73125 0.38391,13.76481 -0.31439,19 -0.3668,2.75 -0.97866,4.51885 -1.35968,3.93077 z m 20.17707,-2.99587 c -0.53639,-1.4108 -0.97525,-3.40314 -0.97525,-4.42742 0,-2.19539 4.49002,-6.00748 7.07584,-6.00748 0.99337,0 2.08424,-0.45 2.42416,-1 0.33992,-0.55 1.37898,-0.98569 2.30902,-0.9682 1.47923,0.0278 1.44791,0.21566 -0.25015,1.5 -1.06762,0.80751 -1.40512,1.52445 -0.75,1.5932 2.75448,0.28906 3.14266,0.42653 4.20542,1.48929 0.81904,0.81904 0.69981,1.52875 -0.45,2.67857 -0.86036,0.86035 -1.56429,1.96157 -1.56429,2.44715 0,2.29693 -4.26079,5.25999 -7.56371,5.25999 -2.82164,0 -3.67161,-0.48873 -4.46104,-2.5651 z m -14.75377,-0.60075 c 0.24434,-0.73378 1.30696,-1.49871 2.36139,-1.69983 2.92278,-0.55751 3.38039,-1.9642 3.45945,-10.63432 0.0401,-4.4 0.43082,-9.8 0.86823,-12 0.6601,-3.32006 0.77779,-2.72512 0.69237,3.5 -0.0566,4.125 0.24076,9.11177 0.66082,11.08172 0.61753,2.89602 0.32379,4.23614 -1.53436,7 -2.25995,3.36152 -7.44026,5.55247 -6.5079,2.75243 z m 173.90881,-2.83415 c -0.055,-2.475 0.3366,-5.175 0.8697,-6 0.8007,-1.23901 0.962,-1.15202 0.9271,0.5 -0.023,1.1 -0.4147,3.8 -0.8697,6 l -0.8274,4 -0.1,-4.5 z m -580.953621,0.33287 c 0.2964,-1.52837 5.422301,-4.06728 6.346201,-3.14337 0.2188,0.21881 0.1382,1.39069 -0.1792,2.60417 -0.7313,2.79672 -6.706101,3.31911 -6.167001,0.5392 z m 377.823331,0.60811 c 0,-0.58246 0.45,-0.7809 1,-0.44098 0.55,0.33992 1,0.81648 1,1.05902 0,0.24254 -0.45,0.44098 -1,0.44098 -0.55,0 -1,-0.47656 -1,-1.05902 z m 80.8125,-0.62409 c 0.72187,-0.28887 1.58438,-0.25335 1.91667,0.0789 0.33229,0.33229 -0.25834,0.56864 -1.3125,0.52522 -1.16495,-0.048 -1.4019,-0.28494 -0.60417,-0.60416 z m -77.41896,-1.73373 c -0.33414,-0.87074 -1.44525,-1.58316 -2.46914,-1.58316 -3.15492,0 -1.05164,-2.8855 2.60304,-3.57112 2.30561,-0.43254 3.16838,-1.05798 2.79646,-2.0272 -0.29583,-0.77093 -0.0922,-1.40168 0.45248,-1.40168 0.5447,0 1.22571,0.9 1.51337,2 0.43441,1.66121 0.0307,2 -2.38337,2 -3.35061,0 -3.87718,1.55711 -0.85133,2.51747 1.13027,0.35874 1.88965,1.14844 1.6875,1.75489 -0.6048,1.8144 -2.6975,2.00861 -3.34901,0.3108 z m 4.60646,-0.58316 c 0,-0.55 0.45,-1 1,-1 0.55,0 1,0.45 1,1 0,0.55 -0.45,1 -1,1 -0.55,0 -1,-0.45 -1,-1 z m 100.75,0.31067 c -2.63032,-0.68737 -2.10343,-2.31067 0.75,-2.31067 1.55556,0 2.5,0.56667 2.5,1.5 0,1.53859 -0.23768,1.59788 -3.25,0.81067 z m 48.24999,-0.86969 c 0,-0.85746 0.4574,-1.27636 1.0163,-0.9309 0.559,0.34546 0.7574,1.04702 0.441,1.55902 -0.8572,1.38704 -1.4573,1.12841 -1.4573,-0.62812 z m -206.74781,-3.94098 c 0.0111,-2.2 0.21589,-2.98225 0.45508,-1.73834 0.23919,1.24391 0.23011,3.04391 -0.0202,4 -0.25029,0.95609 -0.446,-0.0617 -0.4349,-2.26166 z m 146.09368,2.2506 c -0.42469,-0.68717 -0.64233,-2.48717 -0.48365,-4 0.20548,-1.95889 -0.16492,-2.7506 -1.28684,-2.7506 -0.86646,0 -1.57537,-0.45 -1.57537,-1 0,-1.78426 2.21504,-1.06001 4.58758,1.5 2.55285,2.75457 7.12385,3.32167 10.38051,1.28785 2.63108,-1.64313 4.03585,0.005 1.5522,1.82097 -1.38629,1.01368 -3.25231,1.25399 -6.24843,0.8047 -3.88375,-0.58241 -4.27186,-0.44859 -4.27186,1.47294 0,2.33602 -1.45224,2.80885 -2.65414,0.86414 z m 72.98513,-1.0006 c -1.1727,-2.6648 -0.5265,-10.98887 0.7898,-10.17533 0.5015,0.30994 0.6587,0.97313 0.3493,1.47376 -0.3094,0.50063 -0.073,1.82526 0.5257,2.94362 0.8645,1.61537 1.4772,1.82519 2.9805,1.02066 4.625,-2.47526 5.4926,0.24564 1.3874,4.35093 -3.2265,3.22649 -4.7403,3.32344 -6.0327,0.38636 z m -88.66432,0.58333 c -1.26779,-1.26779 -0.65891,-2.33333 1.33333,-2.33333 1.11111,0 2,0.66667 2,1.5 0,1.52241 -2.1154,2.05126 -3.33333,0.83333 z m 40.43876,-2.91831 c -1.3236,-3.66034 -0.85269,-5.56228 0.93465,-3.77494 1.35799,1.35799 1.94615,4.76416 1.068,6.18504 -0.43085,0.69714 -1.22438,-0.25784 -2.00265,-2.4101 z m -279.10542,1.25339 c 0,-3.82276 -4.57153,-15.50677 -7.12797,-18.21781 l -2.87551,-3.0494 3.70197,0.43218 c 2.81147,0.32822 4.97681,1.68684 9.00174,5.64801 5.12587,5.04468 6.3978,7.72196 4.28803,9.02587 -0.56309,0.34801 -1.28688,-0.75036 -1.63218,-2.47686 -0.55813,-2.79066 -3.55514,-6.0304 -5.57859,-6.0304 -1.39689,0 -0.81617,3.72301 0.78845,5.05472 0.86126,0.71479 2.16732,2.46256 2.90234,3.88394 1.16682,2.25638 1.10639,2.86838 -0.47623,4.82283 -2.06527,2.5505 -2.99205,2.83142 -2.99205,0.90692 z m -2,-17.66841 c 0,-0.55 -0.42344,-1 -0.94098,-1 -0.51754,0 -1.2191,0.45 -1.55902,1 -0.33992,0.55 0.0835,1 0.94098,1 0.85746,0 1.55902,-0.45 1.55902,-1 z m 276.49999,18 c 0.33992,-0.55 0.81648,-1 1.05902,-1 0.24254,0 0.44098,0.45 0.44098,1 0,0.55 -0.47656,1 -1.05902,1 -0.58246,0 -0.7809,-0.45 -0.44098,-1 z m -246.49999,-1.0109 c 0,-0.55599 0.91921,-2.91849 2.04269,-5.25 2.17037,-4.50406 8.95731,-12.82142 8.95731,-10.97714 0,0.60235 -0.5721,1.68983 -1.27132,2.41661 -3.41392,3.54847 -5.81882,7.44248 -6.76383,10.95198 -0.93392,3.46832 -2.96485,5.42643 -2.96485,2.85855 z m -226.80834,-2.0641 c 0.1971,-0.59125 0.7858,-1.075 1.3083,-1.075 0.5225,0 1.1113,0.48375 1.3084,1.075 0.1971,0.59125 -0.3917,1.075 -1.3084,1.075 -0.9166,0 -1.5054,-0.48375 -1.3083,-1.075 z m 54.21006,-2.50595 c -0.856,-2.04869 -1.93452,-6.01858 -2.39672,-8.82197 -1.11628,-6.77065 -2.47124,-10.10135 -6.3264,-15.55124 -8.6849,-12.27751 -8.15976,-14.01666 0.69726,-2.30919 4.16297,5.50274 5.76154,8.61757 6.67178,13 0.65838,3.16984 2.0288,8.10745 3.04537,10.97246 2.17024,6.11641 0.70978,8.4565 -1.69129,2.70994 z m 359.61872,-3.16905 c -0.65167,-3.7125 -1.37586,-9.675 -1.60931,-13.25 -0.23344,-3.575 -0.83356,-7.85 -1.33359,-9.5 -1.58113,-5.21746 -2.20577,-10.5 -1.24158,-10.5 1.39454,0 2.96526,7.33266 4.07629,19.0294 0.54701,5.75883 1.69052,12.43968 2.54115,14.84633 1.90145,5.37973 1.9196,6.12427 0.14924,6.12427 -0.94142,0 -1.78393,-2.20235 -2.5822,-6.75 z m 100.61064,4.30967 c -0.9225,-1.40782 -1.2434,-2.55967 -0.7132,-2.55967 0.5303,0 1.2467,0.45734 1.5922,1.01631 0.3454,0.55897 1.047,0.75742 1.559,0.44098 1.1485,-0.70981 1.187,0.59055 0.07,2.35238 -0.6261,0.98719 -1.2435,0.67941 -2.5077,-1.25 z M 505.41577,559.07097 c 0.29807,-6.6 1.00075,-15.15 1.5615,-19 1.12287,-7.70924 3.83385,-16.5 5.08843,-16.5 1.06478,0 1.02103,1.36516 -0.0817,2.55 -1.40869,1.51355 -4.01167,17.96438 -4.73892,29.95 -0.36709,6.05 -1.05079,11.9 -1.51933,13 -0.49515,1.16246 -0.62494,-3.02522 -0.30995,-10 z m -14.74263,7.62457 c -0.24847,-1.69292 -0.13901,-3.58411 0.24326,-4.20262 0.38408,-0.62146 0.89713,0.2525 1.14678,1.95348 0.24847,1.69292 0.13901,3.58411 -0.24326,4.20262 -0.38408,0.62146 -0.89713,-0.2525 -1.14678,-1.95348 z m -17.99515,0.35193 c -0.98064,-0.98064 0.3925,-5.34016 1.8593,-5.90303 1.07259,-0.41159 1.30033,-0.0526 0.85558,1.34867 -0.33333,1.05025 -0.0897,2.22867 0.54138,2.6187 0.83186,0.51412 0.77429,0.9456 -0.20933,1.56885 -1.58164,1.00218 -2.32239,1.09135 -3.04693,0.36681 z m 64.3894,-4.13691 c -0.19017,-2.94549 0.16019,-4.94369 0.95268,-5.43347 0.84576,-0.52271 1.20092,-3.15413 1.09195,-8.0904 -0.13546,-6.13609 0.0189,-6.9126 0.9574,-4.81572 0.6154,1.375 1.75841,3.85 2.54003,5.5 0.78161,1.65 1.63662,5.54859 1.90001,8.66354 0.42745,5.05501 0.25851,5.73348 -1.57225,6.31454 -1.12813,0.35806 -2.50518,0.37041 -3.0601,0.0274 -0.55492,-0.34296 -1.00895,0.078 -1.00895,0.93545 0,0.85746 -0.3375,1.55866 -0.75,1.55822 -0.4125,-4.5e-4 -0.88535,-2.09727 -1.05077,-4.65961 z m -80.69215,2.67186 c -0.35034,-0.56686 0.0511,-0.7345 0.94098,-0.39301 1.73242,0.66479 2.04939,1.38156 0.61096,1.38156 -0.51754,0 -1.21592,-0.44485 -1.55194,-0.98855 z m 24.49292,-0.51145 c 0,-0.825 0.45,-1.5 1,-1.5 0.55,0 1,0.675 1,1.5 0,0.825 -0.45,1.5 -1,1.5 -0.55,0 -1,-0.675 -1,-1.5 z m 90,-0.55902 c 0,-0.58246 0.45,-0.7809 1,-0.44098 0.55,0.33992 1,0.81648 1,1.05902 0,0.24254 -0.45,0.44098 -1,0.44098 -0.55,0 -1,-0.47656 -1,-1.05902 z m 104.99999,0.50936 c 0,-1.22166 3.4267,-7.09486 5.3973,-9.25072 4.2519,-4.65165 8.8128,-9.1986 11.4667,-11.43169 3.4855,-2.93289 4.7982,-4.95925 2.688,-4.14949 -2.1803,0.83665 -2.0134,-2.37376 0.448,-8.61844 1.3284,-3.37016 2,-7.43205 2,-12.09604 0,-4.82786 0.3418,-6.81078 1.0937,-6.34603 1.2483,0.77146 0.2709,15.81527 -1.2105,18.63138 -0.5453,1.03663 -0.5012,1.92874 0.1141,2.30902 2.002,1.23727 1.0712,6.51373 -1.5501,8.7874 -8.2109,7.12213 -16.4576,16.21581 -17.4601,19.25351 -0.6282,1.90342 -1.5573,3.46076 -2.0646,3.46076 -0.5074,0 -0.9225,-0.24735 -0.9225,-0.54966 z M 23.420529,556.87847 c -0.3663,-4.29413 -0.1993,-10.9575 0.371,-14.8075 0.5704,-3.85 1.0459,-10.46094 1.0568,-14.69098 0.011,-4.23004 0.4698,-7.9691 1.0198,-8.30902 1.1695,-0.72278 1.3617,-4.5 0.229,-4.5 -0.4241,0 -0.7111,-2.42141 -0.6377,-5.38091 0.1068,-4.30631 0.7101,-6.10666 3.0211,-9.01497 3.3607,-4.22937 4.7131,-2.40392 1.5553,2.09932 -1.0785,1.53811 -2.2212,4.25906 -2.5393,6.04656 -0.4904,2.75546 -0.2809,3.25 1.3763,3.25 1.2633,0 2.6542,-1.37116 3.9324,-3.87667 2.1879,-4.28858 3.5964,-5.12333 8.6447,-5.12333 2.9387,0 3.4182,-0.33571 3.4182,-2.39301 0,-2.64973 -1.5855,-3.57103 -6.3318,-3.67919 -4.1365,-0.0943 -8.3879,-5.10424 -9.5331,-11.23411 -0.4629,-2.47786 -1.8077,-5.7333 -2.9884,-7.23431 -1.1806,-1.501 -2.1467,-3.54185 -2.1467,-4.53522 0,-0.99337 -0.45,-2.08424 -1,-2.42416 -2.2168,-1.37009 -0.7336,-4.55413 4.1788,-8.97086 4.2519,-3.82275 5.6387,-4.54078 7.748,-4.01139 3.4705,0.87105 3.6485,1.18796 1.8117,3.22612 -0.8705,0.96587 -1.8982,3.02047 -2.2839,4.56577 -0.4935,1.97706 -1.1553,2.63543 -2.2334,2.22173 -1.7139,-0.6577 -6.2212,3.06835 -6.2212,5.14294 0,0.75142 1.1913,1.37594 2.75,1.44169 1.6919,0.0714 2.0767,0.29196 1,0.57333 -2.6617,0.69558 -2.2113,3.51529 0.5,3.13022 1.7245,-0.24492 2.3232,-1.0786 2.5634,-3.56955 0.3103,-3.21813 2.1866,-4.68092 2.1866,-1.70469 0,1.2412 0.738,1.41008 3.75,0.85812 2.0625,-0.37796 4.6377,-1.29835 5.7225,-2.04531 3.993,-2.74925 10.5275,-0.52942 10.5275,3.57626 0,0.7023 1.0891,2.57113 2.4201,4.15297 2.0417,2.42648 2.2621,3.30879 1.4099,5.64435 -0.7216,1.97774 -0.6223,4.48177 0.3477,8.7683 1.2203,5.39253 1.6344,6.03204 4.09,6.31642 1.6583,0.19205 2.7323,0.92254 2.7323,1.85841 0,1.18092 -0.6439,1.38221 -2.75,0.85964 -1.5125,-0.37529 -2.9,-1.09907 -3.0833,-1.60841 -0.5518,-1.53287 -1.665,-1.08949 -6.4629,2.57394 -4.7975,3.66315 -6.9997,4.43485 -6.121,2.14486 0.4003,-1.043 -0.4707,-1.2696 -3.7814,-0.98379 -7.0219,0.60622 -8.6319,1.22456 -9.3508,3.59125 -0.3755,1.23623 -1.6706,3.59768 -2.878,5.24768 -1.2074,1.65 -2.6942,4.35 -3.3041,6 -1.3115,3.54826 -2.7401,21.24831 -2.7567,34.15506 -0.01,5.03528 -0.3001,9.44866 -0.6526,9.8075 -0.3525,0.35884 -0.9405,-2.86094 -1.3068,-7.15506 z m 25.9476,-54.3075 c 0.34,-0.55 -0.11,-1 -1,-1 -0.8899,0 -1.3399,0.45 -1,1 0.34,0.55 0.79,1 1,1 0.2101,0 0.6601,-0.45 1,-1 z m -19.5,-36.68806 c 0,-0.17157 -1.35,-0.31194 -3,-0.31194 -2.5428,0 -3,0.38556 -3,2.52994 l 0,2.52993 3,-2.21799 c 1.65,-1.2199 3,-2.35837 3,-2.52994 z m 2.5589,-3.84134 c 1.8798,-1.48106 1.8646,-1.52057 -0.4805,-1.25 -1.332,0.15367 -2.607,0.8419 -2.8334,1.5294 -0.5602,1.701 0.9634,1.57255 3.3139,-0.2794 z m 121.520081,99.94607 c 0.048,-1.16495 0.28494,-1.4019 0.60416,-0.60417 0.28887,0.72187 0.25335,1.58437 -0.0789,1.91667 -0.3323,0.33229 -0.56864,-0.25834 -0.52522,-1.3125 z m 206.92106,0.62878 c 0,-0.525 1.125,-2.07954 2.5,-3.45454 2.19085,-2.19085 2.49317,-3.34033 2.44476,-9.29546 -0.0304,-3.7375 -0.5947,-11.24301 -1.25404,-16.67891 -1.19012,-9.81197 -1.22396,-9.89696 -4.67915,-11.75 -1.9142,-1.0266 -4.44479,-1.86654 -5.62352,-1.86654 -3.4083,0 -4.72447,-2.62975 -5.00303,-9.99624 -0.2987,-7.89879 1.30213,-10.7162 3.94497,-6.94302 1.65667,2.36523 3.67001,1.84237 3.67001,-0.95309 0,-0.97587 0.2961,-2.07041 0.65799,-2.43231 1.20835,-1.20835 3.34201,1.53557 3.34201,4.29788 0,4.30714 2.04604,9.22309 3.59181,8.62992 1.82928,-0.70196 4.82619,3.52049 3.20837,4.52036 -0.88547,0.54725 -0.75865,5.41012 0.52291,20.04949 1.78295,20.367 1.58426,23.82701 -1.36829,23.82701 -0.99657,0 -2.48694,0.675 -3.31194,1.5 -1.72481,1.7248 -2.64286,1.91428 -2.64286,0.54545 z m 11,-0.0454 c 0,-0.55 0.82674,-1 1.83721,-1 1.01046,0 4.35088,-1.8 7.42314,-4 7.57779,-5.42634 8.85279,-5.30962 8.14069,0.74518 -0.68778,5.84807 -1.40104,6.83318 -1.40104,1.93503 l 0,-3.65312 -6.45718,3.48645 c -6.53092,3.52628 -9.54282,4.31105 -9.54282,2.48646 z m -248.00004,-1 c 0,-0.55 0.45,-1 1,-1 0.55,0 1,0.45 1,1 0,0.55 -0.45,1 -1,1 -0.55,0 -1,-0.45 -1,-1 z m 16.07898,-0.58333 c 0.048,-1.16495 0.28494,-1.4019 0.60416,-0.60417 0.28887,0.72187 0.25335,1.58437 -0.0789,1.91667 -0.3323,0.33229 -0.56864,-0.25834 -0.52522,-1.3125 z m 165.42106,-2.41667 c -0.34913,-1.1 -1.05743,-2 -1.574,-2 -0.51658,0 -1.9174,-1.125 -3.11295,-2.5 -1.19555,-1.375 -2.54257,-2.5 -2.99339,-2.5 -1.23777,0 -0.98303,2.77888 0.29376,3.20447 0.61238,0.20413 -0.0626,0.90698 -1.5,1.5619 -2.07609,0.94593 -2.61342,0.92787 -2.61342,-0.0878 0,-0.70321 0.55874,-1.8373 1.24164,-2.5202 0.98886,-0.98886 0.93796,-1.43364 -0.25,-2.18469 -2.08226,-1.31645 -4.03978,-1.20295 -3.74164,0.21694 0.1375,0.65484 -0.5375,1.36283 -1.5,1.57332 -2.51161,0.54928 -2.15947,-1.47793 0.5,-2.87845 3.3119,-1.7441 3.62884,-2.65552 3.15107,-9.06138 -0.26585,-3.5645 -0.0399,-5.8241 0.58228,-5.8241 0.57434,0 1.01665,2.57478 1.01665,5.91821 0,8.58908 0.34249,9.0792 6.35699,9.0971 3.36524,0.01 4.661,0.32053 3.74858,0.89828 -1.15458,0.73109 -1.02558,1.47978 0.75,4.35272 2.3692,3.83344 2.59966,4.73369 1.21182,4.73369 -0.51294,0 -1.21826,-0.9 -1.56739,-2 z m -49.81458,-1.49388 c -8.2983,-1.85807 -8.39749,-2.85032 -0.18542,-1.85475 3.85,0.46675 11.275,0.77884 16.5,0.69354 7.05003,-0.1151 8.46844,0.0497 5.5,0.63886 -8.07644,1.60308 -16.12701,1.79585 -21.81458,0.52235 z m 245.39352,-0.0894 c 0.048,-1.16495 0.28494,-1.4019 0.60416,-0.60417 0.28887,0.72187 0.25335,1.58437 -0.0789,1.91667 -0.33229,0.33229 -0.56864,-0.25834 -0.52522,-1.3125 z m -30.57895,-0.41672 c -1.63041,-0.70061 -1.68751,-0.87242 -0.30902,-0.92971 0.93004,-0.0387 1.9691,0.37971 2.30902,0.92971 0.71066,1.14988 0.67591,1.14988 -2,0 z m 152.89759,-2.25 c 0.1606,-3.19026 0.2458,-3.24628 4.633,-3.04776 5.3744,0.2432 9.6802,0.85926 12.7194,1.81986 3.0055,0.94994 2.8739,-0.62725 -0.3744,-4.48761 -3.8349,-4.55747 -1.8321,-5.20026 2.2669,-0.72755 2.2351,2.43893 3.3706,4.58694 3.17,5.99661 -0.2793,1.96297 -0.8114,2.16081 -5.0057,1.86119 -2.5813,-0.1844 -6.3119,0.25005 -8.2902,0.96543 -2.8409,1.02726 -4.0062,1.04519 -5.5432,0.0853 -2.3638,-1.47617 -3.3031,-1.55799 -2.4734,-0.21543 0.3399,0.55 0.1941,1 -0.324,1 -0.5181,0 -0.8683,-1.4625 -0.7784,-3.25 z m -382.42554,-1.80598 c -2.82941,-2.17416 -1.63555,-2.51808 1.91306,-0.5511 1.3118,0.72713 1.97422,1.57599 1.47204,1.88635 -0.50218,0.31037 -2.02548,-0.29049 -3.3851,-1.33525 z m 105.57602,-1.03695 c 0.87968,-1.70111 1.78651,-2.90583 2.01519,-2.67715 0.60829,0.60828 -1.92644,5.7531 -2.83893,5.76228 -0.42662,0.004 -0.0559,-1.38402 0.82374,-3.08513 z m 10.92912,-0.65026 c -1.17237,-0.19495 -2.95477,-2.10646 -4.2395,-4.54659 -2.11692,-4.02076 -2.15018,-4.45772 -0.73904,-9.71022 0.81269,-3.025 1.48296,-7.1875 1.48949,-9.25 0.007,-2.0625 0.46187,-3.75 1.01187,-3.75 1.26133,0 1.25711,1.80615 -0.022,9.41809 -0.76632,4.56031 -0.6987,7.33283 0.2703,11.08191 1.25834,4.86853 1.38243,4.99262 4.71924,4.71945 1.8848,-0.15431 3.22567,-0.13947 2.9797,0.033 -2.76271,1.93678 -3.73473,2.29296 -5.47004,2.00439 z m 129.52281,-5.867 c -1.925,-1.95068 -4.2875,-3.97722 -5.25,-4.50343 -0.9625,-0.52621 -1.75,-1.48651 -1.75,-2.134 0,-0.64749 -1.2375,-2.21216 -2.75,-3.47706 l -2.75,-2.29981 2.75,0.62065 c 2.38505,0.53829 2.75,0.31431 2.75,-1.68775 0,-1.78067 -0.27122,-2.03719 -1.18635,-1.12206 -1.49895,1.49895 -4.81365,-1.19212 -4.81365,-3.908 0,-2.0321 6.39471,-8.87835 8.29279,-8.87835 0.67436,0 1.80595,-0.92847 2.51465,-2.06326 1.50954,-2.41717 5.5099,-2.28858 5.98237,0.1923 0.19941,1.04705 -0.60076,1.85768 -2.23978,2.26905 -2.5398,0.63745 -3.59307,2.60191 -1.39504,2.60191 0.69104,0 0.4902,0.73458 -0.5,1.82874 -2.55389,2.82202 -2.11575,4.50372 0.97149,3.72887 1.98878,-0.49915 2.49875,-0.32633 2.10038,0.71179 -0.35719,0.93084 0.72588,1.70517 3.37352,2.41187 3.2431,0.86563 3.89962,0.79209 3.89962,-0.43683 0,-0.98537 0.66635,-1.30345 2,-0.95469 1.73986,0.45498 1.98973,0.0474 1.92105,-3.13337 -0.0434,-2.01101 -0.30592,-3.09388 -0.58333,-2.40638 -0.75459,1.87008 -2.12074,1.50901 -2.83772,-0.75 -0.34913,-1.1 -1.27945,-2 -2.06739,-2 -0.78793,0 -1.43261,-0.45 -1.43261,-1 0,-1.48205 4.09126,-1.20085 7.36431,0.50616 3.84787,2.00681 4.89341,1.88119 4.13853,-0.49721 -1.01114,-3.18583 0.3783,-4.12781 2.68547,-1.82064 l 2.11536,2.11536 -3.30385,2.69648 c -3.0164,2.46186 -3.2554,3.05769 -2.74699,6.84816 0.41421,3.08819 0.21211,4.15169 -0.78897,4.15169 -0.7402,0 -1.62292,-0.44835 -1.96159,-0.99633 -0.39285,-0.63563 -1.59081,-0.50429 -3.30902,0.36279 -1.48129,0.74752 -3.32399,1.13563 -4.09489,0.86245 -1.06354,-0.37686 -1.22907,0.0784 -0.68622,1.88721 0.39349,1.31113 0.97234,4.31495 1.28635,6.67514 0.46058,3.46191 0.20667,4.56704 -1.31379,5.7182 -2.50652,1.89772 -2.37816,1.94033 -6.3847,-2.11965 z m -6.71051,-18.38881 c 0.28751,-1.09946 0.115,-2.25101 -0.38337,-2.55902 -0.49837,-0.30801 -0.90612,-0.12026 -0.90612,0.41722 0,0.53747 -0.27314,1.68903 -0.60699,2.55901 -0.33384,0.86999 -0.16133,1.58179 0.38337,1.58179 0.5447,0 1.2256,-0.89955 1.51311,-1.999 z m 199.7105,15.62144 c 0,-0.20765 0.7875,-0.99515 1.75,-1.75 1.5861,-1.24387 1.6214,-1.2085 0.3776,0.37756 -1.3064,1.66575 -2.1276,2.19548 -2.1276,1.37244 z m -254.79999,-2.82244 c -1.3886,-1.3886 -1.61776,-4.8 -0.32244,-4.8 0.48265,0 1.44678,0.68587 2.1425,1.52417 0.69572,0.83829 1.47141,1.31769 1.72376,1.06534 0.80237,-0.80237 -5.65259,-6.50232 -9.7046,-8.5695 -4.53125,-2.31167 -5.94442,-4.02001 -3.32543,-4.02001 1.0075,0 4.22333,1.575 7.1463,3.5 2.92296,1.925 5.52736,3.5 5.78756,3.5 0.26019,0 0.33342,-1.6875 0.16272,-3.75 -0.27986,-3.38136 -0.57499,-3.73228 -3.00221,-3.5697 -2.33949,0.1567 -2.73218,-0.23599 -3,-3 l -0.30816,-3.1803 -7.5,0.35494 c -4.12499,0.19521 -9.01745,0.98271 -10.87211,1.75 -6.94038,2.87126 -9.71818,0.8958 -6.4707,-4.60173 1.79686,-3.04185 1.79024,-3.17188 -0.35066,-6.89178 l -2.18207,-3.79143 2.07237,-2.07237 c 1.95471,-1.95472 2.00777,-2.50672 0.9345,-9.72287 -0.62583,-4.20777 -0.87224,-8.70882 -0.54759,-10.00234 1.64795,-6.56596 23.09115,-6.77963 29.15209,-0.29049 1.89398,2.02779 2.03858,2.93905 1.36496,8.60172 -0.4144,3.4835 -1.33056,6.69032 -2.03592,7.12626 -0.89492,0.55309 -1.07842,2.00044 -0.60722,4.78942 0.45197,2.67518 0.17537,5.19321 -0.83648,7.61491 -1.31462,3.14634 -1.32676,3.97462 -0.0931,6.35253 0.78026,1.50395 2.39225,3.46883 3.58221,4.36642 1.31479,0.99175 2.46819,3.35513 2.94008,6.02439 0.42709,2.41583 1.06413,5.29468 1.41564,6.39744 0.42048,1.31908 -0.0764,2.77303 -1.4524,4.25 -2.34318,2.51511 -4.03871,2.81988 -5.81361,1.04498 z m -0.2,-42.3252 c 0,-0.72117 0.24239,-1.94288 0.53864,-2.71489 0.32596,-0.84944 -0.44963,-1.85395 -1.96429,-2.54408 -2.86171,-1.30388 -4.29462,-0.0585 -2.06334,1.79331 1.87505,1.55615 1.91715,2.99086 0.0878,2.99086 -1.40666,0 -6.07062,-6.8615 -5.23319,-7.69893 0.24578,-0.24577 2.03372,-0.009 3.9732,0.52681 5.45495,1.50618 6.42239,-0.35631 1.64956,-3.17569 -2.92331,-1.72684 -3.08859,-1.7185 -5.63486,0.28439 -1.44276,1.13488 -3.23752,2.06342 -3.98834,2.06342 -1.9253,0 -1.69807,0.97666 0.71392,3.06858 1.14349,0.99174 2.19193,2.57207 2.32986,3.51185 0.26141,1.78112 6.16846,4.34633 8.34107,3.62221 0.6875,-0.22914 1.25,-1.00667 1.25,-1.72784 z m -21.02005,-1.99897 c -2.11173,-2.54448 -0.14598,-2.97471 2.99187,-0.6548 1.62096,1.19844 3.88126,2.17897 5.02288,2.17897 1.78077,0 1.92023,-0.29044 0.98162,-2.04425 -0.60172,-1.12434 -2.67168,-2.79657 -4.59991,-3.71608 -3.19555,-1.52385 -3.35045,-1.78548 -1.75,-2.95575 0.96572,-0.70616 3.293,-1.28392 5.17172,-1.28392 2.59235,0 3.28004,-0.3539 2.85253,-1.46797 -0.90757,-2.36509 0.88294,-2.66665 5.84023,-0.9836 6.02188,2.04448 7.94262,1.33076 3.59291,-1.33508 -4.89619,-3.00076 -10.47228,-3.75508 -13.27042,-1.79519 -2.85763,2.00157 -4.92723,2.04213 -4.175,0.0818 0.67119,-1.74909 -0.94127,-1.94344 -3.73212,-0.44983 -2.3207,1.242 -1.60807,3.11334 0.87578,2.29976 0.94488,-0.3095 0.2009,0.41173 -1.65329,1.60272 -3.08796,1.98347 -3.31998,2.47561 -2.76101,5.85639 0.33564,2.03003 0.61521,4.25346 0.62126,4.94096 0.006,0.6875 1.19111,1.25 2.63345,1.25 2.23616,0 2.43612,-0.22451 1.3575,-1.52417 z m -1.47994,-4.47583 c 0.33992,-0.55 0.81648,-1 1.05902,-1 0.24254,0 0.44098,0.45 0.44098,1 0,0.55 -0.47656,1 -1.05902,1 -0.58246,0 -0.7809,-0.45 -0.44098,-1 z M 502.86816,539.012 c 0,-0.85746 0.45,-1.2809 1,-0.94098 0.55,0.33992 1,1.04148 1,1.55902 0,0.51754 -0.45,0.94098 -1,0.94098 -0.55,0 -1,-0.70156 -1,-1.55902 z m -284.8421,-2.44103 c 0,-1.375 0.22698,-1.9375 0.50439,-1.25 0.27741,0.6875 0.27741,1.8125 0,2.5 -0.27741,0.6875 -0.50439,0.125 -0.50439,-1.25 z m 318.02062,-2.3151 c -0.64818,-1.5483 -1.17852,-3.05384 -1.17852,-3.34563 0,-0.29179 -0.96274,-1.88257 -2.13943,-3.53507 -2.01191,-2.82548 -2.02681,-2.98368 -0.25,-2.65437 2.32914,0.43166 5.67537,6.99304 5.14026,10.07913 -0.37826,2.18149 -0.44025,2.16004 -1.57231,-0.54406 z m 175.39507,-5.4349 c -2.6385,-9.65455 -3.4312,-14.25 -2.4584,-14.25 0.4657,0 1.1181,1.2375 1.4497,2.75 0.3317,1.5125 1.4653,5.42488 2.5191,8.69417 2.0364,6.31772 2.4177,9.55583 1.1251,9.55583 -0.4349,0 -1.6209,-3.0375 -2.6355,-6.75 z m -523.5033,1.05902 c -0.0387,-1.75504 0.37971,-3.4691 0.92971,-3.80902 1.19936,-0.74125 1.19936,2.20893 0,5 -0.72445,1.68588 -0.87047,1.49883 -0.92971,-1.19098 z m 270.17971,0.42881 c -2.41173,-0.57995 -4.25,-1.60934 -4.25,-2.37991 0,-1.74144 1.45119,-1.71007 7.77554,0.16806 9.43393,2.80158 6.52257,4.6281 -3.52554,2.21185 z m 156.47033,-0.32535 c -1.52882,-0.8291 -2.53137,-1.9092 -2.2279,-2.40024 0.76427,-1.2366 6.21596,0.78534 6.89606,2.55764 0.7004,1.8253 -1.1257,1.76373 -4.66816,-0.1574 z m 36.27966,0.58752 c 0,-0.55 0.8438,-1 1.875,-1 1.0313,0 3.3938,-0.30089 5.25,-0.66865 3.0669,-0.60761 3.2497,-0.51632 2.0026,1 -1.4998,1.82343 -9.1276,2.38222 -9.1276,0.66865 z m -498.18,-5.58934 c -3.8555,-6.5784 -8.20866,-17.35533 -7.35516,-18.20883 0.70777,-0.70776 0.74144,-0.64643 3.45736,6.29817 1.29058,3.3 3.67677,8.12785 5.30264,10.72855 1.62587,2.60071 2.76995,5.28712 2.54238,5.96981 -0.22756,0.68269 -2.00381,-1.47177 -3.94722,-4.7877 z m 281.93001,4.94385 c -0.9625,-0.27564 -1.75,-0.84316 -1.75,-1.26117 0,-1.55751 1.27453,-1.93946 3.56541,-1.06847 1.46559,0.55721 3.49356,0.50193 5.3519,-0.14589 1.64568,-0.57369 3.80002,-0.85197 4.78742,-0.61841 1.41335,0.33431 1.15706,0.68954 -1.20473,1.66981 -3.58236,1.48688 -8.33318,2.11625 -10.75,1.42413 z m -137.74999,-1.29549 c 0,-0.51754 0.44485,-1.21592 0.98855,-1.55194 0.56686,-0.35034 0.7345,0.0511 0.39301,0.94098 -0.66479,1.73242 -1.38156,2.04939 -1.38156,0.61096 z m 92.13922,-1.09229 c -1.29844,-1.0817 -3.18438,-1.96673 -4.19099,-1.96673 -1.00661,0 -2.10831,-0.45 -2.44823,-1 -0.35473,-0.57397 0.55232,-1 2.1291,-1 2.67184,0 9.35035,3.74433 9.36407,5.25 0.0124,1.36592 -2.45795,0.71281 -4.85395,-1.28327 z m 8.36078,1.03327 c 0.33992,-0.55 1.7362,-1 3.10285,-1 1.81177,0 2.40523,-0.47402 2.19099,-1.75 -0.2353,-1.40134 0.55291,-1.81126 3.95616,-2.0575 2.51457,-0.18193 4.25,0.12432 4.25,0.75 0,0.58163 -1.125,1.0575 -2.5,1.0575 -1.83333,0 -2.5,0.53333 -2.5,2 0,1.70754 -0.66667,2 -4.55902,2 -2.7847,0 -4.31848,-0.38919 -3.94098,-1 z m -151.053,-2.75 c 1.93248,-8.00579 2.71884,-10.25 3.59154,-10.25 1.43889,0 1.10004,3.23269 -0.57034,5.44113 -0.80751,1.06762 -1.4682,3.20512 -1.4682,4.75 0,1.54488 -0.49878,2.80887 -1.10841,2.80887 -0.70343,0 -0.86587,-1.00477 -0.44459,-2.75 z m 293.53832,1.23232 c -1.48427,-1.78843 -6.6538,-4.73526 -8.98533,-5.12199 -4.18688,-0.69446 -10,-2.72341 -10,-3.49029 0,-1.12409 1.70841,-1.10085 5.82302,0.0792 2.47035,0.70849 3.20928,0.64508 2.91344,-0.25 -0.38252,-1.15735 -5.06464,-2.20473 -14.9489,-3.34403 -3.6904,-0.42537 -4.85826,-1.01077 -5.38478,-2.69919 -0.36979,-1.18581 -1.10922,-2.43695 -1.64318,-2.78031 -1.29246,-0.83111 -2.9232,-9.78488 -2.19817,-12.06926 0.31534,-0.99355 0.98698,-1.80645 1.49254,-1.80645 0.50555,0 1.60023,-1.62996 2.43261,-3.62212 1.8546,-4.43868 1.85441,-4.37788 0.0134,-4.37788 -2.42098,0 -5.74543,3.95346 -5.17114,6.14956 0.32076,1.22659 0.0737,1.81985 -0.65755,1.57922 -0.64422,-0.21199 -1.3266,-1.47519 -1.51639,-2.80711 -0.1898,-1.33192 -1.2023,-3.2267 -2.25,-4.21063 -2.07984,-1.95322 -2.47687,-4.23952 -0.90492,-5.21104 0.55,-0.33992 1,0.0835 1,0.94098 0,2.25391 1.13008,1.93979 5.03777,-1.40034 2.67134,-2.28334 3.04746,-2.96864 1.64649,-3 -0.99866,-0.0224 -2.68616,0.42519 -3.75,0.99454 -1.94221,1.03944 -2.88474,-0.32971 -1.02024,-1.48204 0.79286,-0.49002 12.79942,-3.17898 17.08598,-3.82654 1.54882,-0.23397 1.74725,1.4952 0.51564,4.49331 -0.55443,1.34966 0.17371,2.07211 3.38243,3.35598 6.13058,2.45298 4.00555,3.45705 -2.62813,1.24179 -3.9814,-1.32955 -7.08734,-1.73592 -10.01994,-1.31097 -7.65102,1.10866 -5.31612,2.58096 6.36927,4.01623 2.8156,0.34583 6.26141,1.22133 7.65736,1.94555 2.65433,1.37709 4.72337,0.45304 4.72337,-2.10947 0,-0.68254 0.48883,-1.5431 1.0863,-1.91235 0.71124,-0.43957 1.02152,0.48953 0.89868,2.69098 -0.32727,5.8652 -0.0542,6.6963 3.1994,9.73704 2.37487,2.21951 2.92001,3.31279 2.14443,4.30068 -1.98434,2.52754 -2.18988,6.04812 -0.55345,9.47975 1.35807,2.84789 1.42334,3.79707 0.3764,5.47348 -1.01053,1.61811 -1.01524,2.33097 -0.0233,3.52618 1.20632,1.45353 3.48171,1.38252 10.62154,-0.33146 2.90347,-0.69701 3.17942,2.62087 0.28102,3.37882 -1.2883,0.3369 -1.89328,1.2541 -1.75,2.65315 0.27554,2.69056 -3.35656,3.46354 -5.29569,1.12703 z m -23.20228,-37.31647 c 0.29877,-0.9065 -0.29208,-1.22704 -1.84334,-1 -1.25568,0.18378 -2.48092,0.93452 -2.72276,1.6683 -0.29877,0.9065 0.29208,1.22704 1.84334,1 1.25568,-0.18378 2.48092,-0.93452 2.72276,-1.6683 z m -11.78305,-1.60683 c 0,-0.24254 -0.45,-0.7191 -1,-1.05902 -0.55,-0.33992 -1,-0.14148 -1,0.44098 0,0.58246 0.45,1.05902 1,1.05902 0.55,0 1,-0.19844 1,-0.44098 z m 12,-8.11804 c 0,-0.85746 -0.45734,-1.27636 -1.01631,-0.9309 -0.55897,0.34546 -0.75742,1.04702 -0.44098,1.55902 0.85723,1.38704 1.45729,1.12841 1.45729,-0.62812 z m 148.00679,47.80902 c 0.011,-1.18648 6.439,-5.25 8.3051,-5.25 2.5736,0 2.0114,1.88075 -0.7709,2.57906 -1.3524,0.33944 -2.9825,1.24802 -3.6224,2.01905 -1.2268,1.47822 -3.9234,1.92759 -3.9118,0.65189 z m -426.77449,-4.69909 c -3.11915,-1.72345 -3.82583,-2.55499 -2.14896,-2.52867 0.77917,0.0122 2.54167,0.90222 3.91667,1.97776 2.77634,2.17169 1.74649,2.49264 -1.76771,0.55091 z m 359.7677,0.46169 c -1.925,-0.43257 -5.1875,-1.08276 -7.25,-1.44486 -4.23877,-0.74418 -5.08914,-2.56774 -1.19741,-2.56774 3.78322,0 16.33674,3.01192 16.9954,4.07765 0.6696,1.08344 -3.58102,1.05109 -8.54799,-0.0651 z m -381.19206,-5.7626 c -0.27559,-8.25018 -0.20289,-9.54368 0.64636,-11.5 0.61358,-1.41342 0.25828,-1.75 -1.8473,-1.75 -1.43385,0 -2.60699,-0.41968 -2.60699,-0.93261 0,-1.8721 -4.03305,-2.13506 -9.20218,-0.59999 -4.7329,1.40552 -5.4135,1.41111 -6.40687,0.0526 -2.09165,-2.8605 -5.34164,-0.8248 -5.67136,3.55237 -0.0925,1.2277 -0.98902,2.44684 -1.9923,2.7092 -1.00328,0.26237 -1.68986,1.15556 -1.52572,1.98488 0.47638,2.40702 4.20538,3.25387 7.28732,1.65494 3.82168,-1.98271 4.4688,-1.73493 1.5111,0.57862 -2.7796,2.17423 -6.13807,2.53166 -9.06574,0.96482 -2.4786,-1.32651 -2.45628,-3.18242 0.0657,-5.46482 1.1,-0.99549 2,-2.63642 2,-3.64651 0,-1.0101 0.9,-2.3986 2,-3.08556 1.1,-0.68696 2,-1.98829 2,-2.89185 0,-0.90355 -0.9,-1.87817 -2,-2.16583 -1.35148,-0.35342 -2,-1.36401 -2,-3.11663 4e-5,-1.85434 -0.52587,-2.59363 -1.84497,-2.59363 -1.01476,0 -2.70226,-0.96374 -3.75,-2.14165 -1.89591,-2.13145 -1.89444,-2.13518 0.30783,-0.78268 1.93585,1.18889 2.78073,1.08308 6.75,-0.84534 2.49545,-1.21239 4.53718,-2.8245 4.53718,-3.58247 0,-0.75798 0.9513,-2.58753 2.114,-4.06566 1.16271,-1.47814 1.90211,-2.89942 1.64313,-3.1584 -0.9101,-0.9101 -3.68734,0.78095 -4.2634,2.59597 -0.48068,1.51449 -6.49269,5.98023 -8.05089,5.98023 -0.24356,0 -0.44284,-2.025 -0.44284,-4.5 0,-4.82296 -1.12851,-5.57196 -5.15139,-3.41898 -2.84708,1.52371 -3.6808,0.19017 -1.03828,-1.66072 1.20432,-0.84354 2.18967,-1.97194 2.18967,-2.50756 0,-1.41474 6.41474,-6.82502 10.76143,-9.07634 2.26865,-1.17502 4.81206,-1.73149 6.46887,-1.41531 2.01041,0.38365 2.99917,0.0187 3.75,-1.38429 1.28964,-2.4097 1.32893,-11.59048 0.0598,-13.96195 -0.52797,-0.98652 -0.68832,-3.46752 -0.35633,-5.51332 0.48648,-2.99783 0.96385,-3.62545 2.45994,-3.23421 1.42861,0.3736 1.85629,-0.069 1.85629,-1.92094 0,-2.45645 1.37903,-3.22015 2.51008,-1.39007 0.34546,0.55897 1.04702,0.75742 1.55902,0.44098 0.512,-0.31643 0.94522,0.91373 0.96271,2.73369 0.0293,3.05358 0.14001,3.1662 1.43347,1.45888 0.77091,-1.01757 1.88325,-1.5525 2.47187,-1.18871 1.44992,0.8961 0.36885,4.77142 -3.35739,12.03527 -2.71488,5.2923 -3.10129,7.0938 -3.26145,15.20556 -0.19875,10.06568 1.34238,13.82396 5.93816,14.48108 1.71769,0.2456 2.37548,1.21728 2.92245,4.31694 1.38089,7.82558 0.97809,12.27663 -1.25235,13.83889 -2.77935,1.94673 -0.86031,3.05886 3.77702,2.1889 l 3.5738,-0.67045 -2.82391,2.42902 c -2.63724,2.26846 -2.8528,3.03338 -3.26101,11.57134 -0.48411,10.12555 -2.08361,12.40104 -2.38453,3.3923 z M 191.67671,479.9881 c 0.64899,-4.03242 1.1402,-4.70455 2.5706,-3.51742 1.01897,0.84567 1.63976,0.78243 2.5005,-0.2547 0.88101,-1.06155 0.76088,-1.69845 -0.52101,-2.76233 -0.91632,-0.76047 -1.92312,-1.23643 -2.23733,-1.05768 -0.31422,0.17875 -0.72866,-0.14705 -0.92098,-0.72401 -0.66742,-2.00226 5.75105,1.02174 7.86041,3.70336 l 2.0487,2.6045 -2.30472,1.77334 c -1.2676,0.97534 -1.85012,1.78334 -1.2945,1.79557 0.55562,0.0122 2.26572,-1.14192 3.80021,-2.56479 3.08185,-2.85765 3.10423,-2.78211 -2.75827,-9.31325 -1.96454,-2.18861 -2.43997,-3.18412 -1.33419,-2.79367 2.30597,0.81422 3.13888,-0.765 1.23628,-2.34402 -1.26011,-1.0458 -1.87047,-0.89239 -3.52794,0.8867 -1.10232,1.1832 -2.86013,2.15127 -3.90625,2.15127 -2.32487,0 -3.7152,1.95235 -2.10084,2.95007 0.86066,0.53192 0.76815,1.0645 -0.34542,1.98868 -1.74359,1.44705 -3.10943,7.38557 -2.08128,9.04915 0.99241,1.60574 2.95437,0.67638 3.31603,-1.57077 z m -4.03772,-7.22963 c 0.21771,-0.65313 -0.31666,-1.1875 -1.1875,-1.1875 -0.87083,0 -1.58333,0.7125 -1.58333,1.58333 0,1.76593 2.15276,1.45839 2.77083,-0.39583 z m 20.22917,-1.6875 c 0,-0.825 -0.675,-1.5 -1.5,-1.5 -0.825,0 -1.5,0.675 -1.5,1.5 0,0.825 0.675,1.5 1.5,1.5 0.825,0 1.5,-0.675 1.5,-1.5 z m 162.67488,51.0951 c -0.37118,-0.96727 -0.67487,-2.09393 -0.67487,-2.50369 0,-1.31637 5.8459,0.0646 6.40139,1.51222 0.65256,1.70053 -1.98054,1.88634 -3.01488,0.21275 -0.50423,-0.81588 -0.93429,-0.60557 -1.38415,0.67688 -0.61141,1.74302 -0.69524,1.74945 -1.32749,0.10184 z m 287.07121,-0.22013 c -1.5103,-0.79137 -2.7461,-1.9048 -2.7461,-2.47429 0,-1.27071 3.9637,-0.19378 5.846,1.58832 2.041,1.93247 0.01,2.51382 -3.0999,0.88597 z m -415.07941,-0.0416 c -0.36667,-0.36666 -0.62061,-2.05416 -0.56431,-3.75 l 0.10236,-3.08333 0.82109,3.49322 c 0.85548,3.63956 0.76663,4.46588 -0.35914,3.34011 z m 219.70193,-0.0986 c -0.62226,-0.40408 -1.12851,-2.0442 -1.125,-3.6447 l 0.006,-2.91002 1.85276,2.41002 c 2.80163,3.64425 2.35739,6.15224 -0.73415,4.1447 z m -272.78729,-1.79623 c -0.92211,-0.9221 -1.42263,-1.93048 -1.11227,-2.24084 0.31035,-0.31036 1.09678,-0.0318 1.74762,0.61905 2.041,2.041 4.12725,1.2818 9.19326,-3.34545 2.70046,-2.46658 5.08579,-4.30883 5.30074,-4.09389 0.48769,0.48769 -8.84154,9.62267 -9.82729,9.62267 -0.39589,0 -1.37359,0.25088 -2.17265,0.55751 -0.79907,0.30663 -2.2073,-0.19694 -3.12941,-1.11905 z m 111.49764,-0.0218 c 0.048,-1.16495 0.28494,-1.4019 0.60416,-0.60417 0.28887,0.72187 0.25335,1.58437 -0.0789,1.91667 -0.33229,0.33229 -0.56864,-0.25834 -0.52522,-1.3125 z m 377.42543,-0.42378 c 0.3423,-0.55391 2.0564,-1.69958 3.809,-2.54593 l 3.1866,-1.53882 -3,2.54096 c -3.0409,2.57561 -5.1328,3.38387 -3.9956,1.54379 z m -235.8857,-3.42624 c -1.44028,-1.8883 -2.61869,-4.52116 -2.61869,-5.85079 0,-2.30332 0.16477,-2.36594 3.48828,-1.3257 2.54059,0.79519 3.03589,1.25051 1.82312,1.67593 -1.51956,0.53303 -1.51065,0.6434 0.10196,1.26222 0.97192,0.37296 2.21308,0.40249 2.75814,0.0656 1.0096,-0.62397 6.8285,4.3126 6.8285,5.79308 0,1.6829 -1.71156,0.72038 -3,-1.68709 -0.73588,-1.375 -1.93692,-2.5 -2.66898,-2.5 -1.77069,0 -1.68855,1.45839 0.16898,3 2.29906,1.90805 1.79628,3 -1.38131,3 -2.1071,0 -3.58495,-0.92252 -5.5,-3.43328 z m 4.38131,-0.56672 c 0,-0.55 -0.45,-1 -1,-1 -0.55,0 -1,0.45 -1,1 0,0.55 0.45,1 1,1 0.55,0 1,-0.45 1,-1 z m 215.20169,2.89499 c 0.5095,-1.52867 7.6828,-3.89086 8.3817,-2.76011 0.3083,0.49887 -1.0324,1.5726 -2.9793,2.38608 -4.216,1.76156 -5.9039,1.87842 -5.4024,0.37403 z m -16.7017,-1.3125 c -3.3633,-0.60679 -5.7803,-1.52194 -5.5,-2.08249 0.7659,-1.53183 13,-0.1331 13,1.4863 0,1.58933 -1.3849,1.69943 -7.5,0.59619 z m 28.5051,0.16751 c 0,-0.6875 1.1138,-3.05 2.4688,-5.25 1.355,-2.2 2.4777,-4.7725 2.4949,-5.71667 0.038,-2.06993 -6.4463,-8.78333 -8.4831,-8.78333 -1.9303,0 -2.927,-4.30692 -1.5793,-6.825 0.592,-1.1062 0.8122,-3.33203 0.4894,-4.94629 -0.5383,-2.69124 -0.2507,-3.06962 3.4629,-4.55551 3.4251,-1.37045 4.2215,-2.2573 5.1614,-5.74778 0.6112,-2.27002 0.8352,-4.40346 0.4977,-4.74099 -1.2002,-1.20017 -3.9486,1.53272 -4.9257,4.89792 l -0.9923,3.41765 -0.3713,-2.80191 c -0.2588,-1.95287 -1.183,-3.09545 -3.0499,-3.77063 -4.605,-1.66542 -7.1787,-3.22411 -7.1768,-4.34644 0,-1.61431 8.053,-6.39058 13.6156,-8.07811 6.6521,-2.01809 8.3826,-1.91548 8.3826,0.49709 0,2.41507 0.7712,2.51704 3.0996,0.40987 1.0377,-0.93911 2.5583,-1.33583 3.7142,-0.96898 1.6267,0.51631 2.0782,1.91442 2.675,8.28313 0.3949,4.21409 1.3132,8.58763 2.0406,9.71898 0.7275,1.13135 1.6202,3.857 1.984,6.057 1.0741,6.497 1.4908,7.43562 3.0378,6.84198 0.9176,-0.35212 1.4488,0.0721 1.4488,1.15711 0,0.94219 1.1161,2.59095 2.4801,3.66391 4.1471,3.26213 7.5174,12.58174 4.8894,13.52028 -0.6356,0.22698 -1.4179,-1.1278 -1.7868,-3.09427 -0.4719,-2.51513 -1.0674,-3.34025 -2.1195,-2.93652 -1.0423,0.39998 -1.4632,-0.15317 -1.4632,-1.92306 0,-2.8173 -2.5278,-5.64603 -3.2118,-3.59412 -0.2281,0.68456 -0.9461,0.88513 -1.6379,0.45758 -0.682,-0.42151 -0.9603,-1.61617 -0.6236,-2.67705 0.3399,-1.07098 0.1374,-1.91584 -0.4593,-1.91584 -0.5871,0 -1.0674,0.35298 -1.0674,0.78439 0,0.43142 -1.4625,1.63929 -3.25,2.68416 -7.1862,4.20062 -13.6725,10.80594 -15.9082,16.19991 -2.077,5.01121 -3.8482,6.89541 -3.8367,4.08154 z m 12.4056,-42.25 c -0.7633,-3.04099 1.0532,-3.3702 2.6043,-0.47199 1.1578,2.1634 2.985,1.80406 2.985,-0.58703 0,-0.79254 -0.675,-1.44098 -1.5,-1.44098 -0.825,0 -1.5,-0.45 -1.5,-1 0,-0.55 0.675,-1 1.5,-1 0.825,0 1.4684,-0.7875 1.4297,-1.75 -0.086,-2.13979 -1.7612,-6.23043 -1.8594,-4.54026 -0.052,0.8994 -2.9071,1.0885 -11.1289,0.73713 -9.1288,-0.39013 -11.3308,-0.2003 -12.619,1.08789 -0.8583,0.85826 -1.2378,1.87655 -0.8434,2.26286 0.3944,0.38631 4.7918,0.70238 9.772,0.70238 6.8946,0 9.1703,0.33624 9.5384,1.40935 0.3367,0.98146 -0.025,1.21429 -1.1908,0.76686 -2.4555,-0.94225 -3.1798,2.02409 -1.0649,4.36104 2.5785,2.8492 4.6547,2.56149 3.877,-0.53725 z m -479.2953,41 c 0.0348,-2.76333 1.424,-6.06961 2.07296,-4.93362 0.29335,0.51349 -0.0587,2.28362 -0.78239,3.93362 -0.96825,2.20766 -1.3091,2.47178 -1.29057,1 z m 386.88461,0.0818 c 0,-2.01316 1.08412,-4.58179 1.9338,-4.58179 0.3959,0 0.52168,1.35 0.27951,3 -0.43985,2.9969 -2.21331,4.26434 -2.21331,1.58179 z m -345.80247,-20.5818 c -1.70201,-24.17479 -3.58324,-29.05121 -7.31502,-18.96157 -0.88962,2.40528 -2.18337,4.56186 -2.875,4.7924 -1.59511,0.53171 -1.64843,0.66132 5.49165,-13.34867 5.63777,-11.06221 6.0206,-12.25957 6.35525,-19.87673 0.37161,-8.45863 1.47942,-11.4032 3.62132,-9.62558 0.8694,0.72154 1.52773,0.308 2.33691,-1.46795 0.74904,-1.64398 1.65175,-2.27093 2.69394,-1.87101 1.57848,0.60572 5.10398,6.35911 3.89667,6.35911 -0.35647,0 -0.0954,0.66597 0.5801,1.47993 1.00115,1.20631 0.74646,2.05247 -1.37756,4.57672 -1.43318,1.70324 -2.60578,3.58934 -2.60578,4.19134 0,0.60199 -0.62118,1.80496 -1.38039,2.67327 -1.25773,1.43845 -7.46236,16.34959 -9.10189,21.8739 -0.37464,1.26233 -0.16067,6.21233 0.47548,11 0.63615,4.78766 1.01042,12.75484 0.83172,17.70484 -0.2973,8.23508 -0.43562,7.42767 -1.6274,-9.5 z m -191.287461,14.126 c -2.8006,-2.27047 -1.7951,-4.15984 1.2138,-2.28073 1.5339,0.95795 2.371,0.98889 3.4107,0.12605 1.4315,-1.18802 3.4654,-0.54962 3.4654,1.0877 0,0.51754 -0.81,0.94098 -1.8,0.94098 -0.99,0 -2.2679,0.46796 -2.8399,1.03992 -0.7199,0.71989 -1.7816,0.43864 -3.45,-0.91392 z m 398.531061,-0.6578 c 1.06762,-0.80751 2.39113,-1.4682 2.94113,-1.4682 0.55,0 0.12649,0.66069 -0.94113,1.4682 -1.06762,0.8075 -2.39113,1.46819 -2.94113,1.46819 -0.55,0 -0.12649,-0.66069 0.94113,-1.46819 z m 31.55887,-2.24252 c 0,-1.7092 0.44322,-3.38157 0.98494,-3.71637 0.61542,-0.38035 0.74912,0.62923 0.35636,2.69098 -0.84223,4.42127 -1.3413,4.80279 -1.3413,1.02539 z m 214.24999,1.74316 c -1.2375,-0.49742 -2.25,-1.14389 -2.25,-1.43662 0,-1.09839 3.6908,-0.47695 5.5589,0.93598 2.2655,1.71353 0.4079,1.99459 -3.3089,0.50064 z M 558.86816,507.689 c 0,-0.55 0.45,-1.27811 1,-1.61803 0.55,-0.33992 1,-0.16803 1,0.38197 0,0.55 -0.45,1.27811 -1,1.61803 -0.55,0.33992 -1,0.16803 -1,-0.38197 z M 71.368129,506.57097 c 0.34,-0.55 1.7431,-1 3.1181,-1 1.412,0 2.231,0.43519 1.8819,1 -0.3399,0.55 -1.743,1 -3.118,1 -1.412,0 -2.231,-0.43519 -1.882,-1 z m 362.869431,-0.47975 c -0.84418,-2.19989 0.0836,-2.88424 1.53666,-1.13344 0.81795,0.98557 0.86038,1.6395 0.13544,2.08754 -0.5806,0.35883 -1.33304,-0.0705 -1.6721,-0.9541 z m 41.6306,-1.02025 c 0,-0.825 0.3949,-1.5 0.87756,-1.5 0.48265,0 1.43775,0.675 2.12244,1.5 1.04007,1.2532 0.89568,1.5 -0.87756,1.5 -1.21995,0 -2.12244,-0.63782 -2.12244,-1.5 z m 22,0 c 0,-0.825 0.43588,-1.5 0.96862,-1.5 0.53273,0 0.70959,0.675 0.39301,1.5 -0.31659,0.825 -0.75246,1.5 -0.96862,1.5 -0.21615,0 -0.39301,-0.675 -0.39301,-1.5 z m -392.00003,-2.55902 c 0,-0.58246 0.45,-0.7809 1,-0.44098 0.55,0.33992 1,0.81648 1,1.05902 0,0.24254 -0.45,0.44098 -1,0.44098 -0.55,0 -1,-0.47656 -1,-1.05902 z m 357.67592,-2.34321 c -0.67431,-1.75724 0.1316,-2.59777 2.49078,-2.59777 2.08054,0 2.23938,-0.8018 0.87154,-4.3995 -0.61572,-1.61946 -0.61572,-2.74358 0,-3.12412 0.52898,-0.32693 0.96179,0.24614 0.96179,1.27347 0,1.02734 0.66069,2.7414 1.4682,3.80902 1.4489,1.91562 1.46965,1.91484 1.57894,-0.0589 0.0874,-1.57837 0.32481,-1.41331 1.12614,0.78299 0.55846,1.53064 0.76205,3.44314 0.45243,4.25 -0.74943,1.95301 -8.20453,2.00696 -8.94982,0.0648 z M 141.44622,499.4641 c -0.79232,-2.35341 -2.56658,-9.34921 -2.57248,-10.14313 -0.003,-0.4125 0.35152,-0.75 0.78799,-0.75 0.88898,0 3.43819,11.10157 2.71522,11.82454 -0.25394,0.25394 -0.67277,-0.16519 -0.93073,-0.93141 z m -34.57809,-0.656 c 0,-0.41958 1.0125,-1.21182 2.25,-1.76054 1.7778,-0.78828 2.2107,-1.73006 2.0627,-4.48713 -0.1754,-3.26609 0.2322,-3.76152 6.3671,-7.73946 3.605,-2.3375 6.9518,-4.25 7.4374,-4.25 2.2646,0 0.3392,2.21234 -5.6365,6.47651 -3.5856,2.55864 -6.259,5.07314 -5.9409,5.58778 0.7712,1.24794 0.8068,1.237 3.4602,-1.06429 1.2683,-1.1 2.8273,-2 3.4645,-2 0.6371,0 2.0308,-0.79073 3.097,-1.75717 2.1739,-1.97056 6.90559,-4.25551 8.73558,-4.2185 0.66162,0.0134 -0.93455,1.21405 -3.54705,2.66816 -2.61253,1.4541 -4.75003,3.24316 -4.75003,3.97567 0,0.73251 -0.6375,1.33184 -1.4166,1.33184 -0.7792,0 -1.5667,0.3413 -1.75,0.75844 -0.3441,0.78289 -12.1378,7.24156 -13.2233,7.24156 -0.3356,0 -0.6101,-0.34329 -0.6101,-0.76287 z m 120.33968,-1.48713 c 0.30449,-0.6875 1.98747,-4.7375 3.73996,-9 3.39963,-8.26876 6.17898,-10.99525 3.05816,-3 -4.16568,10.6721 -5.40178,13.25 -6.35333,13.25 -0.54912,0 -0.74928,-0.5625 -0.44479,-1.25 z m 130.29984,-0.44385 c -0.35171,-0.35172 -0.63948,-4.21742 -0.63948,-8.59046 0,-7.90266 0.0236,-7.97458 3.88235,-11.83334 3.53107,-3.53106 4.36092,-3.88235 9.17126,-3.88235 3.58414,0 5.89723,-0.55053 7.17619,-1.70796 2.25402,-2.03987 5.37655,-0.63533 5.09848,2.29335 -0.0944,0.99473 0.58055,2.38064 1.5,3.0798 0.91945,0.69916 1.24289,1.28551 0.71877,1.30301 -0.52412,0.0175 0.66043,1.7193 2.63234,3.7818 2.24492,2.34805 3.83778,5.17665 4.26066,7.56607 0.64098,3.62179 0.57061,3.76 -1.38234,2.71481 -1.13174,-0.60568 -2.05771,-1.68603 -2.05771,-2.40077 0,-2.47261 -6.28241,-7.07912 -9.23255,-6.76966 -2.20083,0.23085 -2.76745,-0.12084 -2.76745,-1.7177 0,-2.40556 -2.93727,-3.53507 -6.91878,-2.66059 -4.25597,0.93477 -6.51846,3.98746 -6.55219,8.84061 -0.0211,3.03097 -0.44057,4.17834 -1.52903,4.18201 -1.03278,0.003 -1.40374,0.83034 -1.19095,2.65462 0.30471,2.61234 -0.92313,4.39319 -2.16957,3.14675 z m 2.0228,-13.55615 c -0.27741,-0.6875 -0.50439,-0.125 -0.50439,1.25 0,1.375 0.22698,1.9375 0.50439,1.25 0.27741,-0.6875 0.27741,-1.8125 0,-2.5 z m -9.75646,8.5 c -4.34384,-13.03902 1.75007,-22.52838 17.78773,-27.69886 8.78521,-2.83231 11.53536,-5.27911 13.92212,-12.38645 1.67453,-4.98645 2.23651,-5.83794 2.69526,-4.0837 0.95234,3.64174 -0.34613,7.60013 -3.82703,11.66679 -2.59615,3.03301 -5.03246,4.44124 -11.63387,6.72458 -6.43068,2.22428 -9.38441,3.90259 -12.85003,7.30137 l -4.5,4.4132 0.135,8.90654 c 0.0743,4.89859 -0.003,8.90653 -0.17245,8.90653 -0.1691,0 -0.86962,-1.6875 -1.55673,-3.75 z m 82.73254,-1.75 c -0.35062,-0.91371 -0.002,-1.5 0.89301,-1.5 0.80774,0 1.46862,0.675 1.46862,1.5 0,0.825 -0.40186,1.5 -0.89301,1.5 -0.49116,0 -1.15203,-0.675 -1.46862,-1.5 z m 6.20401,-3.56833 c -1.02873,-0.57571 -1.45796,-1.68571 -1.13275,-2.92931 0.58404,-2.23334 -0.67585,-2.63614 -2.50963,-0.80236 -0.78182,0.78182 -1.2,0.82449 -1.2,0.12244 0,-0.59265 0.675,-1.63775 1.5,-2.32244 1.95549,-1.62291 1.97984,-4.39811 0.032,-3.65066 -0.80739,0.30982 -1.77692,0.0634 -2.15451,-0.54752 -0.40013,-0.64742 -0.23373,-0.83098 0.39887,-0.44002 0.59698,0.36895 1.36807,0.21348 1.71353,-0.34549 0.34549,-0.55897 0.15159,-1.01631 -0.43087,-1.01631 -0.58246,0 -1.05902,-0.45 -1.05902,-1 0,-0.55 0.85186,-1 1.89301,-1 1.04116,0 2.15203,-0.675 2.46862,-1.5 0.93064,-2.42522 5.48462,-1.76894 8.22215,1.1849 1.36856,1.4767 2.26543,3.26567 1.99304,3.9755 -0.27238,0.70983 0.18776,2.92526 1.02255,4.92318 1.61726,3.87065 1.35672,5.13255 -0.78284,3.79151 -1.71691,-1.07612 -4.9272,-0.53591 -6.81716,1.14716 -1.01099,0.90033 -2.04107,1.03392 -3.15699,0.40942 z m 4.50133,-9.72534 c -0.31734,-1.21348 -1.20986,-2.20633 -1.98339,-2.20633 -1.14217,0 -1.09481,0.47559 0.25209,2.53121 1.92124,2.93218 2.55208,2.8138 1.7313,-0.32488 z m -4.6606,-2.39383 c -0.31922,-0.79773 -0.55618,-0.56078 -0.60416,0.60417 -0.0434,1.05416 0.19293,1.64479 0.52522,1.3125 0.33229,-0.3323 0.36781,-1.1948 0.0789,-1.91667 z m -299.17954,10.95001 c -0.38937,-0.95562 -0.21735,-3.14481 0.38227,-4.86487 0.59961,-1.72006 0.84404,-3.52569 0.54317,-4.01251 -0.30088,-0.48682 -0.10538,-0.88513 0.43442,-0.88513 1.40204,0 3.43836,-6.73794 2.78797,-9.22505 -0.35528,-1.35858 0.47312,-3.52836 2.36095,-6.18394 1.59954,-2.25006 3.38094,-6.34101 3.95865,-9.09101 1.4793,-7.0416 5.79368,-18.62608 7.821,-21.00005 5.38263,-6.303 23.25651,-19.21388 33.8133,-24.42443 7.99134,-3.94432 21.45279,-9.06527 23.84471,-9.07092 3.12568,-0.007 0.60404,1.42469 -6.95001,3.94699 -8.60611,2.87358 -19.41663,8.14005 -24.89241,12.12662 -2.25917,1.64477 -6.58259,4.63473 -9.60759,6.64436 -10.2861,6.83349 -15.2134,12.76758 -18.78982,22.62912 -1.7656,4.86843 -3.21018,9.77357 -3.21018,10.90033 0,1.12675 -1.08379,4.34349 -2.40842,7.14831 -1.32463,2.80482 -3.612,9.14967 -5.08304,14.09967 -1.47105,4.95 -3.03967,9.9 -3.48582,11 -0.74057,1.82587 -0.87284,1.84872 -1.51915,0.26251 z m 38.90142,-1.93208 c -1.79964,-2.04958 -1.80369,-2.13253 -0.0732,-1.5 1.00748,0.36827 2.68086,0.66957 3.71861,0.66957 1.26634,0 1.69754,0.49328 1.31123,1.5 -0.81373,2.12055 -2.73462,1.86106 -4.95664,-0.66957 z m 274.71394,-2.40866 c -2.06403,-2.37384 -2.10367,-4.42177 -0.0856,-4.42177 1.31403,0 4.12427,5.78456 3.11367,6.40914 -0.46511,0.28746 -1.82774,-0.60686 -3.02808,-1.98737 z m 70.42884,0.32823 c -1.0559,-2.42577 0.0308,-4.75 2.22085,-4.75 2.33223,0 4.23138,1.88507 4.23138,4.2 0,2.18179 -1.56331,2.38038 -2.36163,0.3 -0.78039,-2.03368 -2.3973,-1.89478 -2.91029,0.25 -0.39863,1.66667 -0.45484,1.66667 -1.18031,0 z m 139.64782,-2 c -2.6092,-4.30998 -3.6137,-7.75 -2.263,-7.75 0.5871,0 1.0674,0.47296 1.0674,1.05103 0,0.57806 1.6875,1.78441 3.75,2.68077 2.6756,1.1628 3.2484,1.74225 1.9994,2.02242 -1.304,0.29248 -1.5952,1.01178 -1.1416,2.81922 0.8751,3.48672 -1.0899,3.01251 -3.4122,-0.82344 z m -536.19562,0.18544 c 0,-1.77904 11.81942,-10.93544 14.11587,-10.93544 1.19334,0 0.36934,0.82036 -7.28216,7.25 -5.88981,4.94926 -6.83371,5.4583 -6.83371,3.68544 z m 9.61244,-1.46665 c 0.91218,-1.39216 1.85901,-2.3307 2.10407,-2.08564 0.6925,0.6925 -1.66602,4.61685 -2.77472,4.61685 -0.54332,0 -0.24154,-1.13904 0.67065,-2.53121 z m 363.60429,-6.52627 c -3.41919,-2.89151 -6.2167,-5.41147 -6.2167,-5.59991 0,-1.29141 3.19114,0.15456 6.06989,2.7504 1.88656,1.70116 4.26696,3.69059 5.28979,4.42097 1.02282,0.73038 1.68283,1.85848 1.4667,2.50689 -0.22593,0.67779 -3.03559,-1.05585 -6.60968,-4.07835 z M 40.258229,467.07097 c 0.1826,-3.3 0.6676,-6.7875 1.0779,-7.75 0.5392,-1.26491 0.2842,-1.75 -0.92,-1.75 -0.9163,0 -1.4,-0.43035 -1.075,-0.95633 0.8008,-1.29569 3.2309,-0.25785 3.9825,1.70087 0.3356,0.87444 0.1453,2.05465 -0.4227,2.62268 -0.568,0.56803 -1.0776,2.40528 -1.1324,4.08278 -0.055,1.6775 -0.4918,4.175 -0.9709,5.55 -0.6281,1.80243 -0.7786,0.82584 -0.5394,-3.5 z m 5.2578,1.36273 c -1.7582,-1.02181 -1.7383,-1.13446 0.392,-2.21959 1.2343,-0.62873 2.9103,-2.15588 3.7245,-3.39367 1.4126,-2.14763 1.3383,-2.27895 -1.6258,-2.87176 -3.4689,-0.69378 -3.2809,-2.37771 0.2655,-2.37771 2.3949,0 6.3901,3.53914 5.2651,4.66412 -0.3585,0.35852 -0.167,1.23605 0.4256,1.95007 0.5926,0.71401 0.7396,1.84485 0.3266,2.51297 -0.512,0.82847 -1.0273,0.46718 -1.6204,-1.13613 -0.8038,-2.17289 -0.9931,-2.2275 -2.4994,-0.72116 -1.345,1.34502 -1.405,1.90059 -0.3432,3.17994 1.0847,1.30697 0.9927,1.54542 -0.5859,1.51978 -1.0299,-0.0167 -2.7059,-0.51481 -3.7246,-1.10686 z m 378.918991,-3.61273 c 0.37917,-2.6125 0.85398,-4.93474 1.05514,-5.16054 0.75285,-0.84506 4.378,3.29025 4.378,4.9941 0,2.16018 -2.59719,4.91644 -4.6327,4.91644 -1.20745,0 -1.35917,-0.90034 -0.80044,-4.75 z m 80.01609,3.88421 c -0.43077,-0.697 -0.51316,-1.53733 -0.18309,-1.86741 0.89497,-0.89496 1.87077,0.4213 1.38739,1.87145 -0.33872,1.01617 -0.57427,1.01538 -1.2043,-0.004 z m -71.40237,-3.83337 c 0.40192,-2.08699 3.5607,-2.95956 5.10897,-1.41129 1.32042,1.32042 0.98297,1.64352 -2.62045,2.50913 -2.3645,0.568 -2.7745,0.38712 -2.48852,-1.09784 z m 65.14839,-3.15086 c -0.32134,-1.22879 -1.44582,-1.87737 -3.3487,-1.93148 -2.12779,-0.0605 -2.71983,0.29663 -2.30102,1.38803 0.40789,1.06293 -0.45917,0.86585 -3.13401,-0.71234 -2.03581,-1.20116 -3.22828,-2.47205 -2.65306,-2.82755 0.57466,-0.35516 -0.55323,-1.50636 -2.50642,-2.55823 -2.01046,-1.0827 -4.3831,-3.54303 -5.4685,-5.6706 -2.91002,-5.7041 -2.57478,-6.83781 2.02192,-6.83781 3.12755,0 4.82738,0.77723 8.25,3.77223 8.69788,7.61117 9.5474,8.68461 10.27065,12.97777 0.70219,4.16824 -0.17926,6.03892 -1.13086,2.39998 z m -45.32897,-0.5392 c 0,-0.76406 0.93767,-2.45156 2.0837,-3.75 1.81567,-2.0571 1.99403,-2.10351 1.38655,-0.36078 -0.38344,1.1 -0.92359,2.7875 -1.20033,3.75 -0.59807,2.08002 -2.26992,2.34574 -2.26992,0.36078 z m 48.6376,-1.86078 c -0.34324,-1.7875 -0.90458,-4.4875 -1.24742,-6 -0.9617,-4.24277 1.35258,-3.33777 2.55724,1 1.27134,4.57789 1.35299,8.25 0.18342,8.25 -0.47803,0 -1.14999,-1.4625 -1.49324,-3.25 z m -29.8876,-4.43933 c -0.9625,-0.25152 -1.75,-0.9332 -1.75,-1.51484 0,-1.29448 6.85912,-0.33671 8.36369,1.16786 1.07012,1.07012 -3.02449,1.28494 -6.61369,0.34698 z m -18.11084,-2.80861 c -0.89287,-2.32679 -0.83256,-2.50206 0.86084,-2.50206 1.68345,0 1.87336,0.86269 0.62385,2.83385 -0.67448,1.06401 -0.97482,0.9969 -1.48469,-0.33179 z m 42.78974,-6.28137 c -1.6891,-1.49638 -4.3891,-3.68083 -6,-4.85433 -4.81531,-3.50784 -1.90561,-3.88075 3.45249,-0.44247 5.17382,3.32003 9.26893,8.10154 6.89166,8.0468 -0.70018,-0.0161 -2.65504,-1.25363 -4.34415,-2.75 z m -26.73605,-7.35752 c -3.33239,-3.79766 -3.0392,-4.38153 1.15059,-2.29139 1.74246,0.86926 4.628,1.50061 6.41233,1.40302 5.54764,-0.30342 7.74423,-0.0126 7.74423,1.0252 0,0.55 -2.475,1 -5.5,1 -3.025,0 -5.5,0.45 -5.5,1 0,1.80162 -1.50747,1.05375 -4.30715,-2.13683 z M 391.377,434.55668 c 1.78421,-2.88692 9.07049,-5.17759 17.87396,-5.61925 7.77271,-0.38994 9.70707,-0.15745 13.1172,1.57661 l 4,2.03401 -3.5,-0.73854 c -6.86056,-1.44766 -21.61512,-0.50238 -26.60399,1.70444 -5.30882,2.34834 -5.7526,2.44303 -4.88717,1.04273 z m -7.53275,-4.77579 c -6.57576,-5.13508 -22.89642,-12.27652 -33.47608,-14.64816 -1.65,-0.36988 -5.95525,-2.62148 -9.56722,-5.00356 -3.61197,-2.38208 -8.41119,-5.27178 -10.66493,-6.42156 -5.66039,-2.88771 -21.16139,-8.57561 -30.76785,-11.28988 -8.6081,-2.43219 -9.06731,-2.61278 -8.38323,-3.29687 0.94308,-0.94308 18.88363,4.31991 30.38323,8.91315 6.6,2.63621 15.15,6.95023 19,9.58672 4.01279,2.74797 9.56046,5.50628 13,6.46362 13.09221,3.64402 28.27655,10.22193 32.36607,14.02111 2.47181,2.29631 0.80136,3.77712 -1.88999,1.67543 z m 43.05962,-1.60948 c 1.77894,-1.7003 7.96429,-3.1279 7.96429,-1.83818 0,0.50664 -1.73971,1.44239 -3.86602,2.07945 -5.04075,1.51025 -5.87915,1.46089 -4.09827,-0.24127 z m 21.28384,0.0514 c -2.29924,-0.6335 -4.51174,-1.48932 -4.91666,-1.90182 -1.18027,-1.20236 3.76284,-0.83631 7.82844,0.57972 7.39511,2.57568 5.22093,3.56288 -2.91178,1.3221 z m -114.24059,-7.23516 c 0.048,-1.16494 0.28494,-1.4019 0.60416,-0.60417 0.28887,0.72188 0.25335,1.58438 -0.0789,1.91667 -0.33229,0.33229 -0.56864,-0.25833 -0.52522,-1.3125 z M 201.87475,419.3924 c 0.008,-1.64666 3.50741,-7.05519 4.3961,-6.79482 0.35992,0.10545 1.56426,-0.0462 2.67631,-0.33702 1.53154,-0.4005 1.94904,-1.21521 1.72146,-3.35917 -0.23997,-2.26056 0.13792,-2.89284 1.87693,-3.14045 1.19756,-0.17052 2.71516,-0.95802 3.37244,-1.75 0.65729,-0.79199 1.89982,-1.43997 2.76119,-1.43997 1.21797,0 1.0796,0.45326 -0.62245,2.03895 -1.20371,1.12143 -2.18856,2.66611 -2.18856,3.43262 0,0.76651 -0.7875,1.66078 -1.75,1.98727 -2.35063,0.79735 -7.25001,5.1853 -7.25001,6.49319 0,0.57638 -0.41786,1.04797 -0.92857,1.04797 -0.51072,0 -1.63572,0.70714 -2.5,1.57143 -1.17506,1.17505 -1.56977,1.23811 -1.56484,0.25 z m 0.49341,-9.79561 -4,-0.56384 3.34832,-0.72566 c 1.84158,-0.39911 4.03687,-0.34032 4.87842,0.13063 2.26328,1.2666 0.31906,1.79965 -4.22674,1.15887 z m 19.50001,-13.914 c 0,-1.04964 20.27175,-7.57337 26.75,-8.60852 2.6194,-0.41854 4.25,-0.29543 4.25,0.3209 0,0.55 -1.85801,1.31391 -4.1289,1.69758 -2.2709,0.38366 -8.0084,1.93779 -12.75,3.45361 -11.39247,3.642 -14.1211,4.24806 -14.1211,3.13643 z m 35.5,-10.09882 c 1.87781,-0.81913 17.31688,-1.43214 16.41667,-0.65183 -0.22917,0.19864 -4.46667,0.62286 -9.41667,0.94271 -5.45986,0.35279 -8.2133,0.23837 -7,-0.29088 z"
       id="path3054"
       inkscape:connector-curvature="0" />
  </g>
</svg>
