<?xml version="1.0" encoding="UTF-8" standalone="no"?>
<!-- Created with Inkscape (http://www.inkscape.org/) -->

<svg
   xmlns:dc="http://purl.org/dc/elements/1.1/"
   xmlns:cc="http://creativecommons.org/ns#"
   xmlns:rdf="http://www.w3.org/1999/02/22-rdf-syntax-ns#"
   xmlns:svg="http://www.w3.org/2000/svg"
   xmlns="http://www.w3.org/2000/svg"
   xmlns:sodipodi="http://sodipodi.sourceforge.net/DTD/sodipodi-0.dtd"
   xmlns:inkscape="http://www.inkscape.org/namespaces/inkscape"
   width="172.64999"
   height="180"
   id="svg2"
   version="1.1"
   inkscape:version="0.48.4 r9939"
   inkscape:export-filename="/home/neil/projets/emiliano/images/woio.png"
   inkscape:export-xdpi="98.309998"
   inkscape:export-ydpi="98.309998"
   sodipodi:docname="woio.svg">
  <defs
     id="defs4" />
  <sodipodi:namedview
     id="base"
     pagecolor="#ffffff"
     bordercolor="#666666"
     borderopacity="1.0"
     inkscape:pageopacity="0.0"
     inkscape:pageshadow="2"
     inkscape:zoom="2.8"
     inkscape:cx="207.33675"
     inkscape:cy="110.02703"
     inkscape:document-units="px"
     inkscape:current-layer="layer1"
     showgrid="false"
     fit-margin-top="0"
     fit-margin-left="0"
     fit-margin-right="0"
     fit-margin-bottom="0"
     inkscape:window-width="1918"
     inkscape:window-height="1059"
     inkscape:window-x="0"
     inkscape:window-y="0"
     inkscape:window-maximized="1" />
  <metadata
     id="metadata7">
    <rdf:RDF>
      <cc:Work
         rdf:about="">
        <dc:format>image/svg+xml</dc:format>
        <dc:type
           rdf:resource="http://purl.org/dc/dcmitype/StillImage" />
        <dc:title></dc:title>
      </cc:Work>
    </rdf:RDF>
  </metadata>
  <g
     inkscape:label="Calque 1"
     inkscape:groupmode="layer"
     id="layer1"
     transform="translate(-14.225228,-872.36213)">
    <path
       style="fill:#eeeeec;fill-opacity:1;stroke:none"
       d="m 178.75296,872.36299 c -0.19118,-10e-4 -0.38271,0.006 -0.57272,0.016 -0.67466,0.1036 -1.27262,0.45258 -1.85288,0.79166 0.59011,3.05164 1.99246,6.00975 1.71813,9.18025 -1.86347,6.61735 -4.42752,13.09773 -8.15272,18.8995 -3.959,6.20015 -8.63719,11.89205 -13.45873,17.43404 -2.30798,2.66028 -4.89091,5.13184 -7.93375,6.9399 -3.32152,2.10621 -7.14129,3.55521 -11.1005,3.68895 -3.71028,-0.042 -7.34588,-1.0286 -10.78047,-2.37509 -1.97472,-0.83024 -3.8889,-1.90012 -5.37338,-3.46994 -1.82296,-1.83552 -3.0785,-4.34842 -3.03201,-6.97361 -0.0594,-2.2749 0.87273,-4.42568 1.9708,-6.3672 2.33968,-4.50709 4.87161,-8.89867 7.10836,-13.45876 1.48469,-3.1771 2.96329,-6.37726 4.04269,-9.71924 0.95178,-2.89911 1.83367,-5.87555 1.95395,-8.94443 0.015,-1.38825 -0.12824,-2.94643 -1.14542,-3.99213 -0.50483,-0.44524 -1.21834,-0.72902 -1.86974,-0.42112 -1.89158,0.93966 -3.17564,2.69292 -4.49747,4.27851 -1.62787,1.90118 -3.13936,3.89492 -4.75015,5.81134 -2.91051,3.55939 -6.19134,6.88781 -10.08983,9.36551 -2.64594,1.68144 -5.43671,3.20338 -8.48962,3.99215 -3.266938,0.89394 -6.713393,0.77192 -10.05616,0.47166 -3.84464,-0.4042 -7.67708,-0.90529 -11.521622,-1.31389 -5.565947,-0.58694 -11.189415,-1.02848 -16.777085,-0.47164 -3.180957,0.35722 -6.346824,1.48545 -8.759128,3.63841 -2.617379,2.17188 -4.936505,4.67968 -7.344194,7.07466 -2.82518,2.86315 -5.768835,5.59695 -8.74228,8.30433 -1.012743,0.9492 -2.04971,1.88536 -3.015159,2.88041 -0.738329,0.96414 -0.367211,2.361 0.488488,3.11624 1.393386,1.2547 3.327595,1.8619 5.188097,1.7855 1.621576,-0.0468 3.195562,-0.6335 4.514321,-1.56654 2.776689,-1.84658 5.145777,-4.19183 7.731612,-6.28299 2.542506,-2.12936 5.090347,-4.32532 8.068506,-5.82816 2.337882,-0.87886 5.173833,0.41846 6.215608,2.64456 1.163599,2.6285 1.263593,5.53984 1.718133,8.33803 0.906367,6.81752 1.745622,13.65575 2.577207,20.48288 0.26067,2.19324 0.524891,4.38622 0.707471,6.58618 0.02774,1.93659 -0.833415,3.97259 -2.543517,4.98595 -2.109946,1.44782 -4.539194,2.34094 -6.822017,3.46998 -10.177702,4.77717 -20.365606,9.54005 -30.43796,14.53684 -3.940264,2.0092 -7.85852,4.1024 -11.386863,6.7882 -1.842412,1.40101 -3.463768,3.20181 -4.26165,5.40721 -1.048488,2.7694 -1.490024,5.71041 -2.122405,8.59061 -0.977717,4.9112 -1.795497,9.91699 -1.617069,14.94099 0.06476,1.2638 0.335606,2.5356 1.010669,3.6216 0.726647,0.651 1.888698,0.273 2.391914,-0.4716 9.111657,-8.87578 18.17282,-17.81259 27.372267,-26.5974 1.46436,-1.3688 3.11066,-2.5468 4.952277,-3.3522 3.725754,-1.65381 7.92082,-2.20921 11.95957,-1.70121 1.553812,0.2244 3.119809,0.58201 4.531163,1.28021 0.931095,0.5872 1.216927,1.924 0.70747,2.8804 -2.483898,7.28921 -5.217845,14.47261 -8.017966,21.6452 -2.227642,5.826 -4.514254,11.6376 -6.451432,17.5686 -0.636997,1.6812 -0.485984,3.6264 0.404266,5.188 1.749324,4.093 3.900246,8.0102 5.87872,11.9934 3.319262,6.4328 6.769945,12.7986 10.561487,18.9671 1.841462,2.938 3.99256,5.76 6.822005,7.8156 3.017053,2.2904 6.398308,4.0708 9.887709,5.525 4.227633,1.6462 8.787727,2.6328 13.34083,2.3246 3.335347,-0.2018 6.609197,-1.0184 9.668717,-2.3582 5.40337,-2.3316 10.23575,-5.8754 14.38519,-10.0224 3.63186,-3.6806 6.64386,-7.9435 9.07918,-12.4987 2.43423,-4.3904 4.6531,-8.8952 6.55249,-13.543 2.14593,-5.2118 3.53703,-10.6902 5.0028,-16.1202 2.37816,-9.296 4.57349,-18.63318 6.8894,-27.94479 1.38607,-5.55681 2.74187,-11.12821 4.22796,-16.65922 1.16682,-4.2438 2.87878,-8.30941 4.64909,-12.33019 3.02837,-6.72533 5.98677,-13.47893 8.99494,-20.21336 3.04999,-6.86541 6.0786,-13.7404 8.94441,-20.68502 2.27809,-5.65411 4.43476,-11.37125 6.33353,-17.16452 1.18491,-3.6661 2.51963,-7.36791 2.54351,-11.26895 0.0378,-2.0882 -0.45268,-4.13732 -0.80854,-6.18191 -0.63887,-3.09872 -1.40421,-6.1909 -2.54352,-9.14657 -0.6301,-1.44462 -1.52729,-2.97988 -3.08253,-3.55416 -0.54396,-0.187 -1.11085,-0.24976 -1.68445,-0.25268 z m -95.204965,41.11736 c 0.18732,0.016 0.376996,0.0912 0.555868,0.1348 0.580231,0.1832 1.158537,0.36094 1.734986,0.55586 0.563417,0.2189 1.074775,0.60222 1.482312,1.04436 0.338918,0.39466 0.45569,0.91442 0.539014,1.41492 0.0876,0.53283 0.09862,1.08155 0.03368,1.61709 -0.04166,0.6301 -0.12762,1.2598 -0.202134,1.88658 -0.0773,0.55272 -0.1322,1.09306 -0.1516,1.65074 -0.02556,0.54542 -0.03756,1.16774 -0.471649,1.56654 -0.355406,0.3451 -0.898845,0.33198 -1.347547,0.21898 -0.544225,-0.154 -1.089311,-0.26274 -1.617072,-0.47164 -0.546734,-0.22236 -1.097005,-0.47912 -1.617075,-0.758 -0.498589,-0.2535 -0.916859,-0.6993 -1.010663,-1.26334 -0.11848,-0.54374 -0.04458,-1.11698 -0.05052,-1.6676 0.02726,-0.54392 0.0036,-1.07326 -0.0168,-1.61706 -0.0096,-0.53714 0.0074,-1.08955 0.11788,-1.61709 0.13272,-0.54996 0.255026,-1.12198 0.539028,-1.61706 0.271539,-0.51908 0.746021,-0.8768 1.29703,-1.0612 0.06226,-0.012 0.12284,-0.0224 0.18528,-0.016 z m 21.594615,0.64008 c 0.5313,0.0512 1.09905,0.1096 1.5497,0.42112 0.1544,0.0792 0.30605,0.1808 0.37057,0.35374 0.16476,0.23562 0.26547,0.5064 0.30321,0.7917 0.0313,0.54492 0.0108,1.088 0,1.63391 -0.0266,0.57 -0.0813,1.15404 -0.16844,1.71814 -0.0794,0.59076 -0.15102,1.16732 -0.26951,1.7518 -0.10466,0.46334 -0.16082,0.9514 -0.37057,1.38126 -0.22488,0.42468 -0.63138,0.73162 -1.07806,0.89274 -0.51184,0.166 -1.05237,0.27128 -1.58337,0.35374 -0.55867,0.089 -1.16002,0.25006 -1.7013,0.016 -0.36694,-0.158 -0.65284,-0.45824 -0.80854,-0.82538 -0.21533,-0.54866 -0.29004,-1.13402 -0.33689,-1.71814 -0.0598,-0.57702 -0.012,-1.15864 0.0337,-1.73498 0.0349,-0.56414 0.11546,-1.12378 0.18528,-1.68444 0.0496,-0.55937 0.20142,-1.14997 0.5727,-1.58339 0.007,-0.0882 -0.10058,0.0458 -0.10104,-0.016 l 0.0336,-0.016 c -0.0158,-0.0554 0.0332,-0.1448 0.10104,-0.1178 l 0.0842,-0.0506 c 0.12246,-0.1648 0.29824,-0.27558 0.4548,-0.40428 0.0316,-0.0874 0.10684,0.02 0.1516,-0.0336 l 0,-0.0842 0.84223,-0.43796 c 0.48841,-0.23772 0.98283,-0.53536 1.53285,-0.58956 l 0.20213,-0.016 z m -3.1836,1.56656 -0.017,0.0506 c -0.0142,0.1368 0.14068,-0.0818 0.017,-0.0506 z m -0.10104,0.0842 c -0.0108,0.008 0.0335,0.0718 0.0336,0.016 -0.02,-0.018 -0.03,-0.02 -0.0336,-0.016 z m 8.99494,13.72824 c 0.42648,-0.0254 0.76505,0.47504 0.96015,0.80852 0.40392,0.72542 0.66983,1.60194 0.43794,2.42562 -0.55799,1.31158 -1.10467,2.6226 -1.68445,3.92476 -0.2768,0.49924 -0.38283,1.12475 -0.85906,1.48231 -0.5496,0.45234 -1.40471,0.21118 -1.92028,0.72432 -0.31353,0.36312 -0.16436,0.89746 -0.0505,1.31388 0.2111,0.59318 0.37405,1.25854 0.13476,1.86972 -0.12494,0.50132 -0.56379,0.82852 -0.9096,1.1791 -0.40524,0.35508 -0.78054,0.74566 -1.22964,1.04438 -0.41153,0.25022 -0.92656,0.34216 -1.38125,0.1516 -0.57878,-0.3281 -0.97567,-0.9522 -1.65077,-1.11172 -0.53104,-0.058 -1.10548,0.3768 -1.01066,0.94328 0.059,0.49404 0.481,0.87622 0.48849,1.38126 0.0178,0.58318 -0.50007,0.98458 -1.02751,1.09488 -1.05356,0.2148 -2.062266,0.61237 -3.133079,0.74117 -0.54477,0.0564 -1.039785,-0.30623 -1.280177,-0.77485 -0.309806,-0.5991 -0.482563,-1.29506 -0.993823,-1.76868 -0.385369,-0.36328 -1.167367,-0.40492 -1.414942,0.1348 -0.18388,0.48758 0.07634,0.98352 0.252675,1.43178 0.21243,0.49352 -0.222012,1.15137 -0.774853,1.06121 -0.572149,-0.1742 -1.114435,-0.44745 -1.633912,-0.74119 -0.485142,-0.2638 -0.987549,-0.53554 -1.313869,-0.9938 -0.379418,-0.57854 -0.286352,-1.28458 -0.353734,-1.93712 0.02314,-0.57532 -0.495113,-1.1189 -1.078045,-1.01066 -0.577953,0.0514 -0.728781,0.68744 -1.027515,1.07804 -0.498469,0.37324 -0.797593,-0.43816 -1.179106,-0.64008 -0.671828,-0.62064 -1.315697,-1.2899 -1.718145,-2.1224 -0.493139,-0.84616 -0.805769,-1.78128 -1.094885,-2.71196 -0.218075,-0.59618 -0.323389,-1.24678 -0.151601,-1.86975 0.154781,-0.54644 0.599167,-0.95478 1.145428,-1.0949 0.666642,-0.1588 1.321137,0.1164 1.970796,0.23584 0.705252,0.184 1.421773,0.45004 1.97081,0.94328 0.54426,0.53035 0.85941,1.23551 1.162265,1.92027 0.226762,0.42502 0.795906,0.80824 1.246487,0.47166 0.481132,-0.35768 0.411726,-1.0336 0.758011,-1.48232 0.35513,-0.52299 1.022985,-0.66411 1.600223,-0.79169 0.589159,-0.1788 1.242295,-0.16 1.802354,0.101 0.496155,0.2422 0.844427,0.68711 1.179117,1.11175 0.285507,0.31884 0.729109,0.6736 1.179105,0.4548 0.473587,-0.24126 0.529811,-0.80986 0.572721,-1.28018 0.0613,-0.49151 0.247454,-1.00761 0.690619,-1.28019 0.575445,-0.50752 1.501455,-0.59596 2.139265,-0.1516 0.56484,0.38824 0.68765,1.12504 1.19594,1.56655 0.30548,0.35034 0.8848,0.32352 1.14543,-0.0674 0.2543,-0.37635 0.0933,-0.82657 0.017,-1.22965 -0.10406,-0.47314 -0.15352,-0.96106 -0.017,-1.43178 0.11944,-0.48262 0.61356,-0.85654 1.11174,-0.80852 0.58657,0.0796 0.96086,0.60868 1.2128,1.09488 0.22694,0.46854 0.70347,0.91988 1.26333,0.7917 0.59791,-0.1682 0.58555,-0.90268 0.40426,-1.38124 -0.19062,-0.5285 -0.41304,-1.0975 -0.25265,-1.66762 0.13094,-0.5907 0.64969,-0.9541 1.0612,-1.34754 0.62051,-0.65998 1.30033,-1.25938 2.03818,-1.78552 z"
       id="path2985"
       inkscape:connector-curvature="0"
       inkscape:export-filename="/home/neil/projets/emiliano/images/woio.png"
       inkscape:export-xdpi="98"
       inkscape:export-ydpi="98" />
  </g>
</svg>
